<svg xmlns="http://www.w3.org/2000/svg" xmlns:xlink="http://www.w3.org/1999/xlink" width="20" height="20" version="1.1" viewBox="0 0 20 20"><path fill="#fff" d="M10 20q-2.031 0-3.887-0.791t-3.193-2.129-2.129-3.193-0.791-3.887 0.791-3.887 2.129-3.193 3.193-2.129 3.887-0.791 3.887 0.791 3.193 2.129 2.129 3.193 0.791 3.887-0.791 3.887-2.129 3.193-3.193 2.129-3.887 0.791zM10 2.5q-2.031 0-3.76 1.006t-2.734 2.734-1.006 3.76 1.006 3.76 2.734 2.734 3.76 1.006 3.76-1.006 2.734-2.734 1.006-3.76-1.006-3.76-2.734-2.734-3.76-1.006zM11.211 12.891q-0.078 0.332-0.273 0.527-0.371 0.371-0.938 0.313-0.547 0.059-0.918-0.313-0.195-0.195-0.293-0.547l-3.457-3.457q-0.332-0.332-0.332-0.801t0.332-0.801 0.801-0.332 0.801 0.332l3.066 3.086 3.086-3.086q0.332-0.332 0.801-0.332t0.801 0.332 0.332 0.801-0.332 0.801z"/></svg>