<svg xmlns="http://www.w3.org/2000/svg"><metadata>Created by FontPrep 20130207 at Thu Oct 9 15:36:24 2014 By Aaron Hitchcock Copyright (c) 2009 by TypeTogether. All rights reserved.</metadata><defs><font id="0a4f2185508fb7ba59ff5878a2a1ccf5" horiz-adv-x="1024"><font-face x-height="1059" ascent="1546" bbox="-193 -500 2058 1944" cap-height="1483" descent="-502" font-family="Adelle-SemiBold" font-stretch="normal" font-weight="600" panose-1="2 0 5 3 0 0 0 2 0 4" underline-position="-102" underline-thickness="102" unicode-range="U+0020-FB04" units-per-em="2048"/><glyph glyph-name=".notdef"/><glyph glyph-name=".null" horiz-adv-x="0"/><glyph glyph-name="nonmarkingreturn" horiz-adv-x="682"/><glyph glyph-name="space" horiz-adv-x="438"/><glyph d="M145 1483h256v-348l-28 -744h-195l-33 744v348zM125 116.5q0 141.5 151.5 141.5t151.5 -141.5t-151.5 -141.5t-151.5 141.5z" glyph-name="exclam" horiz-adv-x="552" unicode="!"/><glyph d="M449 915v531h221v-531h-221zM104 915v531h222v-531h-222z" glyph-name="quotedbl" horiz-adv-x="774" unicode="&quot;"/><glyph d="M489 434h220l41 275h-218zM68 270l36 164h211l43 275h-223l35 165h213l35 238h176l-37 -238h217l35 238h174l-37 -238h225l-32 -165h-217l-39 -275h223l-35 -164h-213l-41 -270h-174l41 270h-219l-41 -270h-174l39 270h-221z" glyph-name="numbersign" horiz-adv-x="1243" unicode="#"/><glyph d="M760 326q0 119 -135 176v-328q135 33 135 152zM326 958q0 -111 143 -170v332q-143 -33 -143 -162zM82 387h156l32 -154q4 -23 24 -43t165 -28v395q-144 41 -247 112t-103 241q0 171 98 263.5t262 114.5v152h166v-148q141 -6 323 -63v-330l-174 21l-30 151q-9 53 -119 59 v-395q145 -46 216 -97.5t98.5 -115t27.5 -147.5q0 -160 -93 -251t-259 -116v-172h-166v164q-234 10 -377 76v311z" glyph-name="dollar" horiz-adv-x="1075" unicode="$"/><glyph d="M1372 575q-153 0 -153 -229t149 -229q82 0 117 60.5t35 172.5t-33 168.5t-115 56.5zM1028 344q0 168 89 271.5t261 103.5q330 0 330 -357q0 -178 -89 -282.5t-261 -104.5t-251 100.5t-79 268.5zM393 -35l772 1307h219l-770 -1307h-221zM426 1126q-154 0 -154 -229 t151 -229t150 237q0 109 -32.5 165t-114.5 56zM82 895q0 168 89 271.5t261 103.5q332 0 332 -357q0 -178 -90 -282.5t-262 -104.5t-251 100.5t-79 268.5z" glyph-name="percent" horiz-adv-x="1789" unicode="%"/><glyph d="M311 403q0 -100 60.5 -169.5t183.5 -69.5q174 0 283 149l-310 357q-217 -56 -217 -267zM82 391q0 317 334 426q-94 135 -94 269t99 216t263 82q94 0 189.5 -25.5t146.5 -53.5v-295l-170 8l-27 139q-6 29 -28 35q-41 12 -108 12t-104.5 -35t-37.5 -95t30.5 -114.5 t116.5 -152.5l256 -301q55 182 62 287h301v-129l-94 -19q-18 -2 -24.5 -8t-10.5 -27q-23 -141 -82 -270l137 -164q18 -23 49 -26l115 -19v-131h-291l-139 166q-170 -190 -436 -191q-205 0 -329 109.5t-124 306.5z" glyph-name="ampersand" horiz-adv-x="1466" unicode="&amp;"/><glyph d="M104 915v531h222v-531h-222z" glyph-name="quotesingle" horiz-adv-x="430" unicode="'"/><glyph d="M102 576q0 470 334 929l178 -106q-135 -211 -199.5 -404.5t-64.5 -426.5t62.5 -412t187.5 -389l-182 -103q-316 442 -316 912z" glyph-name="parenleft" horiz-adv-x="663" unicode="("/><glyph d="M559 591q0 -472 -321 -927l-181 103q127 203 191.5 390t64.5 419t-63.5 418t-194.5 405l178 106q326 -442 326 -914z" glyph-name="parenright" horiz-adv-x="661" unicode=")"/><glyph d="M395 1546h178v-137l-55 -205l176 119l129 45l58 -168l-131 -45l-211 -14l170 -127l86 -107l-142 -110l-86 108l-82 195l-84 -195l-86 -108l-141 110l86 107l172 129l-213 12l-131 45l57 168l131 -45l175 -119l-56 205v137zM539 1141l-21 63h-67l-19 -61l53 -43z" glyph-name="asterisk" horiz-adv-x="968" unicode="*"/><glyph d="M193 563v195h288v299h201v-299h291v-195h-291v-307h-201v307h-288z" glyph-name="plus" horiz-adv-x="1167" unicode="+"/><glyph d="M375 111q0 -47 -37 -121l-117 -232l-112 37l59 217q6 16 -10 23l-76 26l45 193q123 -4 185.5 -31.5t62.5 -111.5z" glyph-name="comma" horiz-adv-x="425" unicode=","/><glyph d="M47 489v213h555v-213h-555z" glyph-name="hyphen" horiz-adv-x="649" unicode="-"/><glyph d="M102 116.5q0 141.5 151 141.5t150 -141.5t-151 -141.5t-150 141.5z" glyph-name="period" horiz-adv-x="505" unicode="."/><glyph d="M16 -188l576 1734h213l-574 -1734h-215z" glyph-name="slash" horiz-adv-x="821" unicode="/"/><glyph d="M332 586q0 -221 60.5 -325.5t206.5 -104.5t206.5 108.5t60.5 330.5t-56 324.5t-204 102.5t-211 -107.5t-63 -328.5zM84 580q0 623 530 622q290 0 395 -163t105 -431q0 -633 -522 -633q-295 0 -401.5 164t-106.5 441z" glyph-name="zero" horiz-adv-x="1198" unicode="0"/><glyph d="M72 0v133l194 12q20 2 26.5 9.5t6.5 31.5v768q0 35 -29 43l-188 37l16 137h437v-985q0 -25 5 -32t27 -9l174 -14v-131h-669z" glyph-name="one" horiz-adv-x="792" unicode="1"/><glyph d="M479 1202q418 0 418 -325q0 -96 -38 -164l-37 -68q-13 -25 -55 -72l-54 -60q-12 -13 -69 -68l-296 -283h383q25 0 29 24l28 168h168v-354h-895v154l426 417l58 60q37 39 50 59l32 51q30 52 30 115q0 170 -194 170q-109 0 -155 -42t-46 -161l-215 23q0 219 129 287.5 t303 68.5z" glyph-name="two" horiz-adv-x="1017" unicode="2"/><glyph d="M705 233q0 211 -250 211q-68 0 -148 -14v168l113 10q125 12 190.5 76t65.5 164q0 178 -193 178q-109 0 -156.5 -43t-47.5 -160l-218 23q0 356 435 356q414 0 413 -332q0 -121 -63.5 -203.5t-171.5 -119.5v-8q268 -43 268 -316q0 -188 -125 -290.5t-344 -102.5 q-145 0 -268 48t-197 132l133 146q135 -139 320 -140q244 0 244 217z" glyph-name="three" horiz-adv-x="1026" unicode="3"/><glyph d="M53 152v161l451 883l190 -94l-401 -768h358v385l219 20v-405h179v-182h-181v-289h-217v289h-598z" glyph-name="four" horiz-adv-x="1073" unicode="4"/><glyph d="M750 278q0 128 -68 183t-176 55t-213 -92l-164 72l45 675h539q23 0 28 23l29 113l141 10v-342h-549l-28 -350q115 76 256 75q184 0 290.5 -109t106.5 -307t-127 -326t-354 -128q-316 0 -486 180l136 148q135 -139 336 -140q109 0 183.5 66t74.5 194z" glyph-name="five" horiz-adv-x="1071" unicode="5"/><glyph d="M588 154q106 0 159.5 69.5t53.5 189.5t-44 175t-163 55t-250 -102q10 -387 244 -387zM102 636q0 104 13.5 191.5t49.5 182t93 164t154.5 114.5t222.5 45q383 0 383 -319l-221 -27q0 98 -39 135t-126 37t-146.5 -40t-101.5 -136t-46 -266q156 100 328 100t274 -103.5 t102 -303.5t-128 -317.5t-345 -117.5q-399 0 -433 278.5t-34 382.5z" glyph-name="six" horiz-adv-x="1118" unicode="6"/><glyph d="M82 1171h940v-172q-184 -190 -320.5 -511.5t-144.5 -624.5h-250q23 258 108 495.5t170 371.5t181 245h-457q-23 0 -28 -23l-35 -180l-164 -12v411z" glyph-name="seven" horiz-adv-x="1034" unicode="7"/><glyph d="M356 1026q0 -58 26 -113.5t208 -140.5q139 125 139 244q0 150 -190 149q-86 0 -134.5 -40.5t-48.5 -98.5zM291 330q0 -88 60.5 -137.5t169.5 -49.5t166.5 52.5t57.5 129.5t-25.5 104.5t-34.5 38.5t-32 27l-32 22q-10 7 -39 23l-125 62q-166 -145 -166 -272zM72 311 q0 121 57 208t160 171q-168 109 -168 284t119.5 267t310.5 92t293 -85t102 -228q0 -170 -182 -330q229 -133 229 -340q0 -182 -132 -278.5t-345 -96.5t-328.5 87t-115.5 249z" glyph-name="eight" horiz-adv-x="1052" unicode="8"/><glyph d="M557 1026q-217 0 -217 -265q0 -124 47 -186.5t163 -62.5t249 104q-7 227 -68 318.5t-174 91.5zM98 751q0 207 122 329t341 122q318 0 398.5 -214t80.5 -451q0 -707 -512 -707q-115 0 -224 36t-179 103l106 156q139 -111 301 -111t214.5 128t56.5 294q-141 -108 -321 -108 t-282 108t-102 315z" glyph-name="nine" horiz-adv-x="1146" unicode="9"/><glyph d="M102 923.5q0 141.5 151 141.5t150 -141.5t-151 -141.5t-150 141.5zM102 116.5q0 141.5 151 141.5t150 -141.5t-151 -141.5t-150 141.5z" glyph-name="colon" horiz-adv-x="505" unicode=":"/><glyph d="M94 923.5q0 141.5 151 141.5t150 -141.5t-151 -141.5t-150 141.5zM375 111q0 -47 -37 -121l-117 -232l-112 37l59 217q6 16 -10 23l-76 26l45 193q123 -4 185.5 -31.5t62.5 -111.5z" glyph-name="semicolon" horiz-adv-x="425" unicode=";"/><glyph d="M160 475v238l774 305l59 -189l-626 -233l632 -229l-57 -183z" glyph-name="less" horiz-adv-x="1167" unicode="&lt;"/><glyph d="M197 653v199h774v-199h-774zM197 301v199h774v-199h-774z" glyph-name="equal" horiz-adv-x="1167" unicode="="/><glyph d="M158 367l633 229l-627 233l61 189l774 -305v-238l-784 -291z" glyph-name="greater" horiz-adv-x="1167" unicode="&gt;"/><glyph d="M248 116.5q0 141.5 151.5 141.5t151.5 -141.5t-151.5 -141.5t-151.5 141.5zM487 1483q471 0 471 -406q0 -199 -119.5 -318.5t-322.5 -150.5v-219h-235v367q412 33 411 323q0 98 -59.5 153.5t-160.5 55.5t-155 -28q-20 -10 -24 -43l-21 -123l-186 -15v322q213 82 401 82z" glyph-name="question" horiz-adv-x="1009" unicode="?"/><glyph d="M668 294q0 -161 90 -161q98 0 213 131l61 387q-45 29 -112 29q-102 0 -177 -112.5t-75 -273.5zM111 358q0 358 219.5 581.5t555.5 223.5t528 -172.5t192 -462.5t-110 -421.5t-293 -131.5t-220 148q-74 -72 -135.5 -110t-130.5 -38q-106 0 -165.5 73t-59.5 212 q0 231 120.5 392t323.5 161q143 0 278 -65l-53 -328q-24 -125 -24 -201.5t43 -83.5q18 -9 40 -9q106 0 159 104t53 262q0 250 -133 383t-411 133t-439.5 -186.5t-161.5 -468.5t153.5 -428t425.5 -146q174 0 348 63l41 -141q-152 -72 -409 -72q-338 0 -536.5 185.5 t-198.5 543.5z" glyph-name="at" horiz-adv-x="1708" unicode="@"/><glyph d="M508 606h442l-217 649h-6zM12 0v129l88 23q41 10 52 38l450 1293h289l452 -1297q8 -25 50 -34l94 -23v-129h-559v131l168 19l-95 276h-546l-95 -276l164 -19v-131h-512z" glyph-name="A" horiz-adv-x="1499" unicode="A"/><glyph d="M506 846h141q315 0 316 239q0 127 -70 173.5t-215 46.5h-172v-459zM506 178h196q166 0 253 51.5t87 194.5q0 246 -303 246h-233v-492zM106 0v131l130 14q20 2 26 10.5t6 30.5v1108q0 25 -6 32t-26 9l-130 15v133h642q449 0 448 -363q0 -135 -71.5 -222t-178.5 -122v-6 q344 -39 344 -360q0 -410 -553 -410h-631z" glyph-name="B" horiz-adv-x="1374" unicode="B"/><glyph d="M84 738q0 352 192.5 561.5t554.5 209.5q285 0 457 -112v-359l-174 13l-35 198q-2 27 -28 35q-115 37 -230 37q-227 0 -357 -147.5t-130 -429.5t125 -432t348 -150q166 0 254 35q29 8 33 39l32 188h166v-338q-172 -111 -518 -111t-518 205.5t-172 557.5z" glyph-name="C" horiz-adv-x="1394" unicode="C"/><glyph d="M508 178h182q276 0 407.5 147t131.5 435t-128 416.5t-399 128.5h-194v-1127zM106 0v131l130 14q20 2 26 10.5t6 30.5v1108q0 25 -6 32t-26 9l-130 15v133h633q375 0 555.5 -187.5t180.5 -536.5t-192.5 -554t-577.5 -205h-599z" glyph-name="D" horiz-adv-x="1558" unicode="D"/><glyph d="M106 0v131l130 14q20 2 26 10.5t6 30.5v1108q0 25 -6 32t-26 9l-130 15v133h1053v-369l-174 8l-29 158q-6 27 -34 27h-414v-471h520v-179h-520v-483h459q29 0 32 23l33 180h172v-377h-1098z" glyph-name="E" horiz-adv-x="1296" unicode="E"/><glyph d="M106 0v131l130 14q20 2 26 10.5t6 30.5v1108q0 25 -6 32t-26 9l-130 15v133h1045v-369l-174 8l-29 158q-6 27 -35 27h-405v-467h512v-178h-512v-474q0 -25 5 -31.5t28 -9.5l301 -16v-131h-736z" glyph-name="F" horiz-adv-x="1239" unicode="F"/><glyph d="M84 741q0 349 192.5 558.5t557.5 209.5q285 0 458 -114v-351l-176 15l-33 186q-6 33 -28 39q-115 37 -236 37q-225 0 -355 -150.5t-130 -426.5t133 -429t385 -153q125 0 227 24q29 6 29 35v326h-258l27 153h587v-133l-86 -8q-33 -2 -32 -29v-464q-186 -90 -506 -91 q-395 0 -575.5 208.5t-180.5 557.5z" glyph-name="G" horiz-adv-x="1499" unicode="G"/><glyph d="M106 0v131l130 14q20 2 26 10.5t6 30.5v1110q0 25 -6 32t-26 9l-130 15v131h572v-131l-137 -17q-23 -2 -28 -9t-5 -30v-442h647v442q0 25 -6 32t-27 9l-129 15v131h563v-131l-129 -17q-23 -2 -27.5 -9t-4.5 -30v-1108q0 -25 5 -31.5t27 -9.5l129 -16v-131h-563v131 l129 14q20 2 26.5 10.5t6.5 30.5v488h-647v-486q0 -25 5 -32t28 -9l137 -16v-131h-572z" glyph-name="H" horiz-adv-x="1662" unicode="H"/><glyph d="M104 0v131l150 14q20 2 26.5 9.5t6.5 31.5v1110q0 25 -6.5 32t-26.5 9l-150 15v131h613v-131l-158 -17q-23 -2 -28 -9t-5 -30v-1108q0 -25 5.5 -31.5t27.5 -9.5l158 -16v-131h-613z" glyph-name="I" horiz-adv-x="813" unicode="I"/><glyph d="M436 164q74 0 102.5 36t28.5 122v976q0 35 -32 37l-179 17v131h621v-131l-137 -17q-23 -2 -28 -9t-5 -30v-983q0 -174 -85 -256t-271 -82q-111 0 -213.5 23.5t-143.5 50.5v318l174 -13l23 -143q2 -20 22 -29q49 -18 123 -18z" glyph-name="J" horiz-adv-x="1042" unicode="J"/><glyph d="M106 0v131l130 14q20 2 26 10.5t6 30.5v1110q0 25 -6 32t-26 9l-130 15v131h572v-131l-137 -17q-23 -2 -28 -9t-5 -30v-555l534 592l-127 17v133h492v-131l-96 -19q-41 -6 -64 -33l-416 -458l465 -649q20 -33 62 -41l125 -21v-131h-586v131l127 21l-365 505l-151 -170 v-299q0 -25 5 -31.5t28 -9.5l137 -16v-131h-572z" glyph-name="K" horiz-adv-x="1519" unicode="K"/><glyph d="M106 0v131l130 14q20 2 26 10.5t6 30.5v1108q0 25 -6 32t-26 9l-130 15v133h605v-133l-170 -17q-23 -2 -28 -9t-5 -30v-1120h459q29 0 32 23l33 194h172v-391h-1098z" glyph-name="L" horiz-adv-x="1271" unicode="L"/><glyph d="M106 0v131l130 14q20 2 26 9.5t6 31.5v1108q0 25 -6 32t-26 9l-130 15v133h461l420 -959h6l426 959h441v-131l-138 -17q-23 -2 -27.5 -9t-4.5 -30v-1110q0 -37 32 -39l138 -16v-131h-596v131l170 14q20 2 26 9.5t6 31.5v932h-6l-356 -790h-266l-359 800h-4v-940 q0 -25 5 -31.5t28 -9.5l176 -16v-131h-578z" glyph-name="M" horiz-adv-x="1957" unicode="M"/><glyph d="M106 0v131l130 14q20 2 26 10.5t6 30.5v1110q0 25 -6 32t-26 9l-130 15v133h445l694 -1168v979q0 25 -6 32t-27 9l-129 15v131h527v-131l-137 -17q-23 -2 -28 -9t-5 -30v-1296h-266l-711 1171v-983q0 -25 5 -31.5t28 -9.5l137 -16v-131h-527z" glyph-name="N" horiz-adv-x="1697" unicode="N"/><glyph d="M334 740q0 -282 119.5 -424t332.5 -142t335 142t122 426t-115.5 426.5t-326.5 142.5t-339 -144.5t-128 -426.5zM86 737q0 346 188.5 559t532.5 213q229 0 455.5 -145.5t226.5 -595.5q0 -371 -180.5 -582t-529.5 -211t-521 208t-172 554z" glyph-name="O" horiz-adv-x="1572" unicode="O"/><glyph d="M506 731h162q253 0 297.5 104.5t44.5 198.5q0 150 -80 210.5t-240 60.5h-184v-574zM106 0v131l130 14q20 2 26 10.5t6 30.5v1108q0 25 -6 32t-26 9l-130 15v133h658q264 0 378.5 -120t114.5 -316q0 -492 -561 -492h-190v-367q0 -25 5 -31.5t28 -9.5l292 -16v-131h-725z" glyph-name="P" horiz-adv-x="1339" unicode="P"/><glyph d="M330 740q0 -282 120.5 -425t332.5 -143t333 143t121 427t-115.5 426.5t-325.5 142.5t-338 -144.5t-128 -426.5zM895 -106q0 -116 98.5 -116.5t169.5 27.5l47 -147q-111 -59 -255 -59q-281 0 -281 278q0 41 8 107q-301 27 -450.5 229t-149.5 536t188.5 547t529.5 213 t513 -206.5t172 -537.5t-149.5 -536.5t-434.5 -242.5q-6 -38 -6 -92z" glyph-name="Q" horiz-adv-x="1572" unicode="Q"/><glyph d="M506 797h151q150 0 237 58.5t87 202.5t-81 195.5t-257 51.5h-137v-508zM106 0v131l130 14q20 2 26 10.5t6 30.5v1108q0 25 -6 32t-26 9l-130 15v133h656q263 0 365 -120t102 -286q0 -287 -277 -395q43 -20 66.5 -57t56.5 -121l123 -314q18 -33 62 -38l124 -21v-131h-559 v129l136 18l-154 388q-18 47 -47 67.5t-80 20.5h-174v-435q0 -25 5 -32t28 -9l131 -16v-131h-564z" glyph-name="R" horiz-adv-x="1390" unicode="R"/><glyph d="M104 416h175l40 -185q4 -20 10.5 -27t24.5 -14q109 -31 209 -30q305 0 305 231q0 119 -86.5 170.5t-249.5 97.5q-164 47 -237 95q-158 104 -158 320t146.5 325.5t366.5 109.5t411 -75v-369l-176 16l-29 170q-6 31 -20 39q-54 33 -186 33t-203.5 -56.5t-71.5 -156.5 q0 -125 94 -170t193 -75q98 -30 140 -45t110.5 -52t103.5 -78t62.5 -110.5t27.5 -157.5q0 -229 -154.5 -338t-400.5 -109q-129 0 -257.5 25.5t-189.5 54.5v361z" glyph-name="S" horiz-adv-x="1204" unicode="S"/><glyph d="M51 1106v377h1264v-377h-170l-33 178q-4 23 -33 23h-276v-1119q0 -23 5 -29.5t28 -8.5l225 -17v-133h-742v133l211 14q20 2 26.5 9.5t6.5 31.5v1119h-274q-29 0 -33 -23l-33 -178h-172z" glyph-name="T" horiz-adv-x="1366" unicode="T"/><glyph d="M88 1483h571v-131l-137 -17q-23 -2 -28 -9t-5 -30v-745q0 -197 75 -287t250 -90t254 84t79 287v751q0 25 -6 32t-27 9l-129 15v131h547v-131l-137 -17q-23 -2 -28 -9t-5 -30v-786q0 -535 -561 -535q-289 0 -420 133.5t-131 407.5v780q0 25 -6 32t-27 9l-129 15v131z" glyph-name="U" horiz-adv-x="1611" unicode="U"/><glyph d="M565 1483v-131l-168 -19l351 -1126h8l344 1126l-164 19l20 131h482v-131l-86 -23q-41 -10 -52 -39l-397 -1290h-321l-430 1294q-8 25 -50 35l-92 23l21 131h534z" glyph-name="V" horiz-adv-x="1454" unicode="V"/><glyph d="M596 1483v-131l-178 -19l250 -1091h8l256 952h252l262 -965h10l252 1104l-180 19l20 131h510v-131l-102 -19q-39 -8 -47 -39l-314 -1294h-315l-238 862h-6l-233 -862h-303l-326 1294q-10 31 -45 37l-113 21l21 131h559z" glyph-name="W" horiz-adv-x="2074" unicode="W"/><glyph d="M49 0v127l113 23q31 8 53 38l389 549l-393 557q-16 27 -49 35l-101 23l21 131h539v-131l-158 -19l297 -436l307 436l-154 19l21 131h469v-131l-94 -23q-29 -6 -52 -39l-378 -524l419 -578q16 -27 50 -34l106 -23v-131h-571v131l155 19l-317 454l-311 -454l153 -19v-131 h-514z" glyph-name="X" horiz-adv-x="1490" unicode="X"/><glyph d="M543 1483v-131l-156 -19l291 -559h10l293 559l-154 19l21 131h463v-131l-86 -23q-39 -10 -51 -39l-381 -721v-381q0 -25 5 -31.5t27 -9.5l211 -16v-131h-714v131l198 14q20 2 26.5 9.5t6.5 31.5v379l-408 729q-14 27 -49 35l-92 23l21 131h518z" glyph-name="Y" horiz-adv-x="1314" unicode="Y"/><glyph d="M102 0v154l820 1153h-551q-29 0 -33 -23l-39 -190l-172 -7v396h1081v-160l-809 -1149h594q29 0 33 23l39 219h172v-416h-1135z" glyph-name="Z" horiz-adv-x="1341" unicode="Z"/><glyph d="M117 -293v1776h389v-127l-131 -21q-20 -2 -26.5 -10t-6.5 -31v-1396q0 -23 6 -31t27 -10l131 -21v-129h-389z" glyph-name="bracketleft" horiz-adv-x="573" unicode="["/><glyph d="M16 1546h213l576 -1734h-215z" glyph-name="backslash" horiz-adv-x="821" unicode="\"/><glyph d="M231 -102v1396q0 23 -6 31t-26 10l-131 21v127h389v-1776h-389v129l131 21q20 2 26 10t6 31z" glyph-name="bracketright" horiz-adv-x="573" unicode="]"/><glyph d="M61 612l404 748h240l409 -748h-229l-303 547l-297 -547h-224z" glyph-name="asciicircum" horiz-adv-x="1175" unicode="^"/><glyph d="M0 -201h1024v-170h-1024v170z" glyph-name="underscore" unicode="_"/><glyph d="M268 1450l142 137l315 -344l-94 -88z" glyph-name="grave" unicode="`"/><glyph d="M326 291q0 -74 32.5 -103.5t98.5 -29.5q141 0 264 123v180l-195 -17q-113 -10 -156.5 -44.5t-43.5 -108.5zM84 266q0 152 93 229.5t284 94.5l260 20v105q0 106 -35 152t-135 46t-137 -17t-49.5 -49t-12.5 -83l-221 20q0 295 414 295q225 0 316 -78.5t91 -287.5v-527 q0 -25 5.5 -32t27.5 -9l100 -14v-131h-321l-21 121l-6 2q-154 -147 -360 -148q-293 0 -293 291z" glyph-name="a" horiz-adv-x="1120" unicode="a"/><glyph d="M899 549q-1 338 -227 338q-114 0 -256 -101v-503q125 -117 254 -117q229 0 229 383zM414 1546v-577q176 111 347 111t276.5 -126t105.5 -410t-116 -426.5t-310 -142.5t-316 121h-8l-12 -96h-227q27 152 26 295v1038q0 35 -26 43l-117 39l20 131h357z" glyph-name="b" horiz-adv-x="1232" unicode="b"/><glyph d="M72 532q0 264 148.5 405.5t375.5 141.5t354 -73v-291l-170 8l-24 135q-5 47 -142 47t-217 -89t-80 -281q0 -371 308 -371q141 0 260 63l67 -159q-150 -92 -387 -92t-365 146t-128 410z" glyph-name="c" horiz-adv-x="1013" unicode="c"/><glyph d="M334 516q0 -184 53 -266t160 -82q141 0 270 137v488q-119 98 -237 98q-246 0 -246 -375zM90 510q0 289 119 429t304 140t310 -92v348q0 33 -26 41l-117 39l20 131h353v-1360q0 -25 5 -32t27 -9l101 -14v-131h-326l-18 121l-13 2q-147 -147 -348 -148q-391 0 -391 535z" glyph-name="d" horiz-adv-x="1236" unicode="d"/><glyph d="M754 637q0 264 -203 264q-94 0 -156.5 -65.5t-70.5 -198.5h430zM72 535q0 266 135 405t348 139q434 0 434 -493q0 -61 -6 -119h-661q8 -150 73.5 -226.5t201.5 -76.5t308 72l66 -164q-188 -96 -393 -97q-506 1 -506 560z" glyph-name="e" horiz-adv-x="1060" unicode="e"/><glyph d="M70 891v168h159v137q0 190 99.5 281.5t277.5 91.5t265 -56.5t90 -207.5l-220 -27q0 76 -27.5 101.5t-107.5 25.5t-110.5 -46t-30.5 -142v-138q0 -20 16 -20h330v-168h-346v-698q0 -25 5 -32t28 -9l243 -21v-131h-669v133l125 12q20 2 26 9.5t6 31.5v684q0 20 -16 21h-143 z" glyph-name="f" horiz-adv-x="858" unicode="f"/><glyph d="M322 698q0 -214 231 -213q106 0 170.5 57.5t64.5 156.5t-60 156.5t-168.5 57.5t-173 -56.5t-64.5 -158.5zM268 -172q0 -125 295 -125t295 147q0 43 -28.5 66t-60.5 27t-107 10l-316 18q-78 -82 -78 -143zM59 -209q0 68 31 116t94 107q-94 41 -94 127q0 59 51 117l77 88 q19 23 36 39q-74 39 -117 118t-43 183q0 176 119 284.5t334 108.5q121 0 192 -20h373v-150l-192 -12q78 -100 77 -211q0 -172 -120.5 -270.5t-307.5 -98.5q-115 0 -172 19l-94 -156l252 -12q327 -18 414.5 -60t106 -102.5t18.5 -122.5q0 -164 -140.5 -254t-404.5 -90 q-490 0 -490 252z" glyph-name="g" horiz-adv-x="1134" unicode="g"/><glyph d="M436 1546v-598q193 131 355 131q309 0 309 -370v-523q0 -25 5 -32t28 -9l112 -14v-131h-512v129l96 14q23 2 29 11.5t6 31.5v476q0 161 -49 193t-96 32q-123 0 -281 -111v-590q0 -25 5.5 -32t27.5 -9l109 -14v-131h-508v129l98 16q20 2 26.5 10.5t6.5 30.5v1147 q0 35 -27 43l-117 39l21 131h356z" glyph-name="h" horiz-adv-x="1286" unicode="h"/><glyph d="M141 1412q0 73 40 112t113 39t114 -39t41 -112t-41 -112.5t-114 -39.5t-113 39.5t-40 112.5zM47 0v129l123 16q20 2 26.5 10.5t6.5 30.5v660q0 35 -27 43l-113 39l21 131h354v-873q0 -25 5.5 -32t27.5 -9l121 -14v-131h-545z" glyph-name="i" horiz-adv-x="624" unicode="i"/><glyph d="M139 1412q0 73 41 112t113 39t112.5 -39t40.5 -112t-40.5 -112.5t-112.5 -39.5t-113 39.5t-41 112.5zM199 -80v926q0 33 -25 43l-127 39l21 131h366v-1182q0 -172 -79 -253t-240 -81q-96 0 -181.5 30t-126.5 65l78 139q81 -57 169 -57t116.5 45t28.5 155z" glyph-name="j" horiz-adv-x="606" unicode="j"/><glyph d="M53 0v129l117 16q20 2 26.5 10.5t6.5 30.5v1147q0 35 -27 43l-117 39l21 131h358v-940l412 453h250v-131l-113 -23q-27 -4 -51 -31l-170 -186l291 -506q18 -31 61 -35l99 -18v-129h-525v129l117 18l-223 392l-148 -164v-189q0 -25 5.5 -32t27.5 -9l115 -14v-131h-533z" glyph-name="k" horiz-adv-x="1232" unicode="k"/><glyph d="M53 0v129l117 16q20 2 26.5 10.5t6.5 30.5v1147q0 35 -27 43l-117 39l21 131h358v-1360q0 -25 5.5 -32t27.5 -9l115 -14v-131h-533z" glyph-name="l" horiz-adv-x="624" unicode="l"/><glyph d="M764 1079q172 0 242 -123q190 123 354 123t233.5 -90t69.5 -260v-543q0 -25 5 -32t28 -9l112 -14v-131h-520v129l107 14q33 4 32 41v482q0 104 -25.5 159.5t-103.5 55.5q-125 0 -251 -82q8 -47 8 -115v-498q0 -25 5 -32t27 -9l95 -14v-131h-504v129l108 14 q20 2 26.5 11.5t6.5 29.5v471q0 176 -42 202t-85 26q-121 0 -254 -105v-592q0 -25 5.5 -32t27.5 -9l100 -14v-131h-499v129l98 16q20 2 26.5 10.5t6.5 30.5v660q0 35 -27 43l-113 39l21 131h303l16 -115l9 -2q180 137 352 137z" glyph-name="m" horiz-adv-x="1849" unicode="m"/><glyph d="M795 1079q305 0 305 -374v-519q0 -25 5 -32t28 -9l112 -14v-131h-516v129l102 12q33 4 33 41v475q0 111 -27.5 168.5t-117.5 57.5q-133 0 -281 -107v-590q0 -25 5.5 -32t27.5 -9l109 -14v-131h-508v133l98 12q20 2 26.5 10.5t6.5 30.5v660q0 35 -27 43l-113 39l21 131 h303l16 -113l9 -2q199 135 383 135z" glyph-name="n" horiz-adv-x="1286" unicode="n"/><glyph d="M596 901q-279 0 -279 -376t270.5 -375.5t270.5 382.5q0 193 -64.5 281t-197.5 88zM72 523q0 257 133 406.5t394 149.5t382 -143t121 -401t-129 -409t-393 -151t-386 145.5t-122 402.5z" glyph-name="o" horiz-adv-x="1173" unicode="o"/><glyph d="M917 549q0 338 -215 338q-133 0 -268 -109v-506q121 -109 252 -108q231 0 231 385zM768 1079q184 0 287.5 -125t103.5 -369t-63.5 -373.5t-150.5 -183t-208 -53.5q-168 0 -307 107v-328q0 -25 6 -32t29 -9l201 -16v-131h-586v133l84 12q23 4 29 11.5t6 31.5v1092 q0 33 -27 43l-113 39l21 131h305l18 -115l7 -2q174 137 358 137z" glyph-name="p" horiz-adv-x="1249" unicode="p"/><glyph d="M334 516q0 -350 217 -350q119 0 266 139v490q-117 96 -241 96t-183 -100.5t-59 -274.5zM90 510q0 289 121 429t300 140t320 -112l27 92h213q-20 -184 -20 -305v-1002q0 -23 6 -31t26 -10l103 -12v-133h-551v131l164 16q23 2 30 9.5t7 29.5v365q-160 -141 -347 -142 q-399 0 -399 535z" glyph-name="q" horiz-adv-x="1208" unicode="q"/><glyph d="M719 1079q94 0 160 -18v-336l-185 8l-24 127q-2 23 -25 23q-94 0 -207 -107v-588q0 -25 6.5 -31.5t28.5 -9.5l193 -16v-131h-594v133l98 12q20 2 26.5 10.5t6.5 30.5v660q0 33 -27 43l-113 39l21 131h305l23 -150l6 -2q131 172 301 172z" glyph-name="r" horiz-adv-x="919" unicode="r"/><glyph d="M477 133q205 0 205 141q0 49 -40 83t-77.5 45t-122.5 29q-85 19 -158.5 42t-131.5 86.5t-58 179.5q0 174 122 257t314 83t336 -59v-277l-170 11l-22 118q-2 20 -23 29q-66 20 -147 21q-195 0 -195 -129q0 -56 29 -78.5t44 -32.5t52 -22l54 -16q18 -5 72 -17t131.5 -35.5 t141.5 -90.5t64 -194q0 -170 -122 -251t-312 -81q-121 0 -236.5 24.5t-148.5 47.5v279l170 -11l20 -125q6 -23 25 -28q92 -29 184 -29z" glyph-name="s" horiz-adv-x="964" unicode="s"/><glyph d="M43 891v145q115 14 172 90t78 220h149v-267q0 -20 17 -20h297v-168h-314v-557q0 -96 32 -135t113 -39t181 35l47 -148q-155 -72 -309 -72t-226.5 72t-72.5 225v598q0 20 -17 21h-147z" glyph-name="t" horiz-adv-x="868" unicode="t"/><glyph d="M436 1059v-684q0 -111 28 -161t109 -50q145 0 285 143v549q0 25 -5 33t-28 12l-98 25l18 133h349v-873q0 -37 26 -41l107 -14v-131h-324l-18 125l-6 2q-189 -152 -367 -152t-244.5 83t-66.5 266v532q0 25 -5.5 33t-27.5 12l-105 25l19 133h354z" glyph-name="u" horiz-adv-x="1282" unicode="u"/><glyph d="M522 1059v-135l-137 -17l252 -682h8l254 682l-135 17l22 135h422v-135l-69 -13q-41 -6 -52 -34l-335 -877h-273l-338 870q-8 27 -43 35l-86 19l27 135h483z" glyph-name="v" horiz-adv-x="1220" unicode="v"/><glyph d="M500 1059v-135l-123 -17l196 -671h9l206 794h254l197 -790h8l193 667l-125 17l22 135h404v-135l-74 -13q-41 -8 -51 -41l-266 -870h-256l-195 762h-6l-186 -762h-287l-279 870q-8 27 -43 35l-86 19l27 135h461z" glyph-name="w" horiz-adv-x="1753" unicode="w"/><glyph d="M25 0v129l94 18q35 6 61 37l281 336l-281 348q-23 27 -49 35l-86 23l21 133h473v-133l-115 -17l190 -243l207 243l-125 17l21 133h420v-133l-90 -21q-29 -10 -56 -39l-264 -311l295 -369q29 -33 55 -36l103 -19v-131h-525v131l115 19l-199 260l-211 -260l125 -19v-131 h-460z" glyph-name="x" horiz-adv-x="1200" unicode="x"/><glyph d="M516 1059v-135l-133 -17l256 -633h8l254 633l-135 17l22 135h422v-135l-67 -11q-39 -6 -51 -34l-480 -1160l205 -20v-133h-606v135l145 16q25 2 34 11.5t22 33.5l104 240l-377 868q-10 27 -43 35l-84 19l27 135h477z" glyph-name="y" horiz-adv-x="1222" unicode="y"/><glyph d="M76 0v135l588 764h-359q-18 0 -22 -27l-25 -122l-170 -11v320h850v-139l-580 -762h381q18 0 23 26l24 148l175 8v-340h-885z" glyph-name="z" unicode="z"/><glyph d="M295 590q135 -56 135 -218q0 -86 -14.5 -213t-14.5 -189t33 -88.5t131 -47.5l-20 -137q-211 10 -297 67.5t-86 200.5q0 55 14 187t14 214t-40.5 117t-120.5 39v137q80 4 120.5 39t40.5 118t-14 216t-14 189q0 143 86 200.5t297 67.5l20 -137q-98 -23 -131 -48.5 t-33 -87.5t14.5 -191.5t14.5 -197.5q0 -182 -135 -237z" glyph-name="braceleft" horiz-adv-x="628" unicode="{"/><glyph d="M180 -293v1839h213v-1839h-213z" glyph-name="bar" horiz-adv-x="573" unicode="|"/><glyph d="M467 1221q0 -55 -14.5 -188.5t-14.5 -216.5t41 -117.5t121 -39.5v-137q-80 -4 -121 -38t-41 -118t14.5 -215t14.5 -186q0 -143 -86 -200.5t-297 -67.5l-21 137q98 20 131 47t33 89t-14 189t-14 213q0 162 135 218q-135 55 -135 237q0 68 14 197.5t14 191.5t-33 87.5 t-131 48.5l21 137q211 -10 297 -67.5t86 -200.5z" glyph-name="braceright" horiz-adv-x="628" unicode="}"/><glyph d="M291 887q82 0 235.5 -47t207.5 -47t77 22.5t43 83.5l129 -47q-25 -127 -73 -189.5t-133 -62.5t-246 47t-215 47t-84.5 -22.5t-65.5 -81.5l-125 57q84 240 250 240z" glyph-name="asciitilde" horiz-adv-x="1021" unicode="~"/><glyph glyph-name="uni00A0" horiz-adv-x="438"/><glyph d="M401 -440h-256v348l33 743h195l28 -743v-348zM125 925.5q0 141.5 151.5 141.5t151.5 -141.5t-151.5 -141.5t-151.5 141.5z" glyph-name="exclamdown" horiz-adv-x="552" unicode="¡"/><glyph d="M352 579q0 -259 156 -321v643q-156 -63 -156 -322zM102 575q0 221 107.5 351.5t298.5 160.5v213h166v-206q166 -8 284 -72v-283l-161 9l-23 126q-6 25 -30 33t-70 15v-682q53 4 80 14q16 4 22 31l23 129l164 8v-283q-106 -61 -289 -73v-203h-166v209q-406 52 -406 503z" glyph-name="cent" horiz-adv-x="1036" unicode="¢"/><glyph d="M88 594v178h156v111q0 451 456 450q274 0 325.5 -110.5t51.5 -206.5l-215 -29q-2 90 -33.5 131t-138.5 41q-211 0 -211 -272v-115h340v-178h-340q0 -164 -23.5 -257t-105.5 -175h496q23 0 28 24l33 168h168v-354h-956l-29 147q102 72 128 151t26 271v25h-156z" glyph-name="sterling" horiz-adv-x="1140" unicode="£"/><glyph d="M352 572q0 -120 59.5 -195.5t174.5 -75.5t176 77.5t61 199.5t-60.5 192t-174.5 70t-175 -74t-61 -194zM133 563q0 137 57 238l-184 182l148 147l172 -174q109 78 268.5 78t263.5 -73l168 167l139 -143l-176 -176q53 -100 53 -232t-63 -249l184 -183l-147 -143l-180 178 q-106 -68 -262 -68t-255 68l-178 -178l-141 141l186 187q-53 96 -53 233z" glyph-name="currency" horiz-adv-x="1167" unicode="¤"/><glyph d="M510 1294v-131l-139 -18l231 -365h8l236 365l-137 18l20 131h442v-131l-86 -22q-31 -8 -51 -39l-246 -369h189v-141h-270v-111h270v-141h-270v-152q0 -25 5 -31.5t27 -9.5l209 -16v-131h-712v131l198 14q20 2 26.5 9.5t6.5 31.5v154h-262v141h262v111h-262v141h174 l-252 373q-16 27 -49 35l-92 22l20 131h504z" glyph-name="yen" horiz-adv-x="1155" unicode="¥"/><glyph d="M180 834v712h213v-712h-213zM180 -293v795h213v-795h-213z" glyph-name="brokenbar" horiz-adv-x="573" unicode="¦"/><glyph d="M346 524q0 -66 51.5 -99.5t153.5 -64.5l141 -41q96 59 96 168q0 47 -34.5 79t-71.5 46.5t-113 34.5l-127 35q-96 -56 -96 -158zM147 481q0 162 150 273q-100 80 -100 228t115.5 228t303.5 80t332 -59v-277l-170 13l-20 120q-4 20 -23 27q-57 20 -147 20t-136 -37t-46 -95 t43 -91.5t108.5 -49t141 -39t141 -52.5t108.5 -93.5t43 -156.5q0 -168 -145 -272q98 -74 98 -201q0 -176 -113.5 -257t-298.5 -81q-113 0 -229.5 25.5t-148.5 46.5v274l163 -10l23 -127q4 -20 25 -27q80 -31 174 -30q195 0 194 141q0 66 -60.5 101.5t-146.5 55t-172 46 t-146.5 95t-60.5 181.5z" glyph-name="section" horiz-adv-x="1138" unicode="§"/><glyph d="M592 1357.5q0 57.5 35 90.5t92 33t92 -33t35 -90.5t-35 -91t-92 -33.5t-92 33.5t-35 91zM172 1357q0 56 36 90t93 34t92 -33t35 -90.5t-35 -91t-92 -33.5t-93 34t-36 90z" glyph-name="dieresis" unicode="¨"/><glyph d="M422 636q0 183 100.5 294.5t290.5 111.5q121 0 229 -41v-221l-98 8l-16 93q-4 23 -23 30q-41 16 -104 17q-100 0 -159.5 -71t-59.5 -220q0 -279 231 -279q66 0 87 12t28 31l24 105h88v-209q-86 -51 -233 -51q-199 0 -292 103.5t-93 286.5zM242 631q0 -254 145 -396.5 t399 -142.5t399.5 146.5t145.5 403.5t-149.5 399.5t-392.5 142.5t-395 -149.5t-152 -403.5zM100 636q0 300 197 484.5t501 184.5t486 -176.5t182 -479.5t-190 -490.5t-506 -187.5t-493 182.5t-177 482.5z" glyph-name="copyright" horiz-adv-x="1566" unicode="©"/><glyph d="M274 764q0 -72 78 -72t152 60v118l-111 -10q-68 -6 -93.5 -27.5t-25.5 -68.5zM82 750q0 100 63.5 150t192.5 61l166 12v67q0 61 -20 88t-82 27t-87.5 -16.5t-27.5 -73.5l-176 14q0 199 290 199q158 0 222.5 -52t64.5 -188v-327q0 -16 4 -20.5t19 -6.5l67 -10v-99h-239 l-15 74h-6q-104 -90 -235 -90q-201 1 -201 191z" glyph-name="ordfeminine" horiz-adv-x="849" unicode="ª"/><glyph d="M453 528l182 308h201l-158 -283q-12 -18 -2 -39l153 -303h-198zM102 528l183 308h200l-157 -283q-12 -18 -2 -39l153 -303h-198z" glyph-name="guillemotleft" horiz-adv-x="921" unicode="«"/><glyph d="M186 569v195h781v-389h-191v194h-590z" glyph-name="logicalnot" horiz-adv-x="1167" unicode="¬"/><glyph d="M47 489v213h555v-213h-555z" glyph-name="uni00AD" horiz-adv-x="636" unicode="­"/><glyph d="M420 999h29q76 0 75 64q0 51 -65 51h-39v-115zM295 786v43l31 5q10 2 10 14v264q0 14 -12 16l-29 5v45h180q137 0 137 -111q0 -80 -75 -106q20 -6 34 -37l37 -74q4 -10 17 -12l34 -9v-43h-172v43l39 7l-41 79q-14 25 -36 25h-29v-94q0 -10 10 -12l33 -5v-43h-168z M174 973q0 -133 77 -208t211 -75t211 77t77 212t-80 210t-206 75t-208 -79t-82 -212zM82 974q0 167 109.5 271.5t276.5 104.5t269.5 -100.5t102.5 -267.5t-105.5 -272.5t-280.5 -105.5t-273.5 101.5t-98.5 268.5z" glyph-name="registered" horiz-adv-x="921" unicode="®"/><glyph d="M193 1241v168h636v-168h-636z" glyph-name="macron" unicode="¯"/><glyph d="M207 1363q0 -50 27.5 -78t74.5 -28t74 30t27 79t-27 78t-73 29t-74.5 -30t-28.5 -80zM86 1363q0 101 63.5 161.5t160 60.5t158.5 -58.5t62 -159.5t-60 -161.5t-160.5 -60.5t-162 58.5t-61.5 159.5z" glyph-name="degree" horiz-adv-x="616" unicode="°"/><glyph d="M193 563v195h288v299h201v-299h291v-195h-291v-289h-201v289h-288zM193 0v195h780v-195h-780z" glyph-name="plusminus" horiz-adv-x="1167" unicode="±"/><glyph d="M55 717v121l267 311q90 106 120.5 155.5t30.5 100.5q0 94 -115 94q-59 0 -85.5 -27.5t-26.5 -97.5l-187 19q-1 252 309 252t310 -226q0 -78 -37 -145.5t-111 -153.5l-233 -274h238q10 0 18 16l18 105h144v-250h-660z" glyph-name="uni00B2" horiz-adv-x="765" unicode="²"/><glyph d="M350 854q152 0 152 133q0 127 -152 127q-35 0 -96 -10v139l70 6q78 8 119.5 41t41.5 105q0 102 -112 102q-61 0 -89 -27.5t-28 -91.5l-186 21q0 246 311 246t311 -230q0 -82 -44 -138t-116 -77v-6q180 -39 181 -219q0 -129 -96.5 -202t-251.5 -73q-217 0 -334 121 l106 125q96 -92 213 -92z" glyph-name="uni00B3" horiz-adv-x="776" unicode="³"/><glyph d="M289 1243l315 344l141 -137l-362 -295z" glyph-name="acute" unicode="´"/><glyph d="M190 -360v1419h236v-694q0 -104 30.5 -154.5t123.5 -50.5q139 0 268 149v750h235v-873q0 -37 27 -41l109 -14v-131h-328l-17 121h-10q-135 -145 -284 -146q-106 0 -170 60l-4 -4l26 -391h-242z" glyph-name="uni00B5" horiz-adv-x="1288" unicode="µ"/><glyph d="M45 815q0 262 157.5 384t413.5 122h519v-131l-138 -16q-23 -2 -27.5 -9.5t-4.5 -29.5v-1225q0 -27 9 -30t23 -5l138 -16v-131h-340v1437h-144v-1437h-336v131l136 16q29 2 28 35v434q-209 14 -321.5 139t-112.5 332z" glyph-name="paragraph" horiz-adv-x="1200" unicode="¶"/><glyph d="M82 643q0 141 151.5 141t151.5 -141t-151.5 -141t-151.5 141z" glyph-name="periodcentered" horiz-adv-x="466" unicode="·"/><glyph d="M356 -377q145 0 146 107q0 88 -140 90l33 241l129 -16l-18 -137q156 -33 156 -174q0 -96 -72 -165t-217 -69q-65 0 -88 8l14 119q29 -4 57 -4z" glyph-name="cedilla" unicode="¸"/><glyph d="M35 717v106l125 15q20 2 20 28v592q0 23 -18 29l-119 24l14 113h336v-760q0 -16 3 -20t20 -8l114 -11v-108h-495z" glyph-name="uni00B9" horiz-adv-x="555" unicode="¹"/><glyph d="M270 922q0 -121 39 -174.5t121 -53.5q162 0 162 226t-154 227q-168 0 -168 -225zM442 1278q346 0 346 -354q0 -168 -89 -266.5t-271 -98.5t-268 94t-86 263t94 265.5t274 96.5z" glyph-name="ordmasculine" horiz-adv-x="862" unicode="º"/><glyph d="M453 836h200l181 -314l-179 -311h-200l153 293q12 20 2 39zM102 836h201l180 -314l-178 -311h-201l154 293q12 20 2 39z" glyph-name="guillemotright" horiz-adv-x="919" unicode="»"/><glyph d="M1446 328v374l-223 -374h223zM1040 168v143l355 592h247v-575h113v-160h-113v-168h-196v168h-406zM469 -35l733 1518h215l-731 -1518h-217zM137 575v107l125 14q20 2 21 29v592q0 23 -19 29l-119 24l15 113h336v-760q0 -16 3 -20.5t19 -8.5l115 -10v-109h-496z" glyph-name="onequarter" horiz-adv-x="1894" unicode="¼"/><glyph d="M1104 0v121l266 311q90 106 121 155.5t31 100.5q0 94 -115 94q-59 0 -86 -27.5t-27 -97.5l-186 19q0 252 309 252t309 -226q0 -78 -36.5 -145.5t-110.5 -153.5l-233 -274h237q10 0 19 16l18 105h143v-250h-659zM403 -35l734 1518h215l-731 -1518h-218zM129 575v107 l125 14q20 2 20 29v592q0 23 -18 29l-119 24l15 113h335v-760q0 -16 3.5 -20.5t19.5 -8.5l115 -10v-109h-496z" glyph-name="onehalf" horiz-adv-x="1894" unicode="½"/><glyph d="M1475 328v374l-224 -374h224zM1069 168v143l354 592h248v-575h113v-160h-113v-168h-196v168h-406zM535 -35l733 1518h215l-731 -1518h-217zM430 713q152 0 152 133q0 127 -152 127q-35 0 -96 -10v139l69 6q78 8 120 41t42 104q0 102 -112 103q-61 0 -89 -28t-28 -91 l-186 20q0 246 311 246t311 -229q0 -82 -44 -138.5t-116 -76.5v-6q180 -39 181 -219q0 -129 -96.5 -202t-252.5 -73q-216 0 -333 121l106 125q96 -92 213 -92z" glyph-name="threequarters" horiz-adv-x="1894" unicode="¾"/><glyph d="M494 925.5q0 141.5 151.5 141.5t151.5 -141.5t-151.5 -141.5t-151.5 141.5zM86 -35q0 199 120 318.5t322 150.5v219h236v-366q-412 -33 -412 -324q0 -98 59.5 -153.5t160.5 -55.5t155 29q20 10 25 43l20 123l186 14v-321q-213 -82 -401 -82q-471 -1 -471 405z" glyph-name="questiondown" horiz-adv-x="1009" unicode="¿"/><glyph d="M508 606h442l-217 649h-6zM475 1765l94 172l402 -258l-64 -110zM12 0v129l88 23q41 10 52 38l450 1293h289l452 -1297q8 -25 50 -34l94 -23v-129h-559v131l168 19l-95 276h-546l-95 -276l164 -19v-131h-512z" glyph-name="Agrave" horiz-adv-x="1499" unicode="À"/><glyph d="M532 1681l402 258l94 -172l-432 -198zM508 606h442l-217 649h-6zM12 0v129l88 23q41 10 52 38l450 1293h289l452 -1297q8 -25 50 -34l94 -23v-129h-559v131l168 19l-95 276h-546l-95 -276l164 -19v-131h-512z" glyph-name="Aacute" horiz-adv-x="1499" unicode="Á"/><glyph d="M508 606h442l-217 649h-6zM408 1665l243 217h189l243 -217l-94 -96l-244 170l-243 -170zM12 0v129l88 23q41 10 52 38l450 1293h289l452 -1297q8 -25 50 -34l94 -23v-129h-559v131l168 19l-95 276h-546l-95 -276l164 -19v-131h-512z" glyph-name="Acircumflex" horiz-adv-x="1499" unicode="Â"/><glyph d="M508 606h442l-217 649h-6zM573 1851q25 0 103 -18q184 -53 216 -58t46 7l66 71l108 -67l-47 -76q-37 -59 -66.5 -85t-66.5 -26q-38 0 -182 39t-161 42t-32 -11l-72 -74l-100 68l59 96q57 92 129 92zM12 0v129l88 23q41 10 52 38l450 1293h289l452 -1297q8 -25 50 -34 l94 -23v-129h-559v131l168 19l-95 276h-546l-95 -276l164 -19v-131h-512z" glyph-name="Atilde" horiz-adv-x="1499" unicode="Ã"/><glyph d="M827 1724.5q0 57.5 35 91t92.5 33.5t92 -33.5t34.5 -91t-34.5 -91.5t-92 -34t-92.5 34t-35 91.5zM508 606h442l-217 649h-6zM408 1724.5q0 57.5 35.5 91t93 33.5t92.5 -33.5t35 -91t-35 -91.5t-92.5 -34t-93 34t-35.5 91.5zM12 0v129l88 23q41 10 52 38l450 1293h289 l452 -1297q8 -25 50 -34l94 -23v-129h-559v131l168 19l-95 276h-546l-95 -276l164 -19v-131h-512z" glyph-name="Adieresis" horiz-adv-x="1499" unicode="Ä"/><glyph d="M664 1625q0 -85 83 -85t83 85t-84 85q-82 0 -82 -85zM508 606h442l-217 649h-6zM12 0v129l88 23q41 10 52 38l448 1287q-61 51 -61 143t58.5 146.5t148.5 54.5t149 -53.5t59 -145.5t-61 -143l450 -1293q8 -25 50 -34l94 -23v-129h-559v131l168 19l-95 276h-546l-95 -276 l164 -19v-131h-512z" glyph-name="Aring" horiz-adv-x="1499" unicode="Å"/><glyph d="M1030 821v486h-94l-252 -486h346zM12 0v131l78 19q47 10 78 67l584 1116l-158 17v133h1319v-369l-174 8l-27 152q-2 20 -10 26.5t-29 6.5h-411v-486h520v-180h-520v-467h458q29 0 33 23l33 180h172v-377h-1090v131l129 14q33 2 33 37v459h-428l-256 -491l152 -19v-131 h-486z" glyph-name="AE" horiz-adv-x="2037" unicode="Æ"/><glyph d="M84 749q0 341 192.5 550.5t554.5 209.5q285 0 457 -112v-359l-174 13l-35 198q-2 27 -28 35q-115 37 -230 37q-227 0 -357 -147.5t-130 -429.5t125 -432t348 -150q166 0 254 35q29 8 33 39l32 188h166v-338q-152 -100 -461 -111l-8 -67q156 -33 156 -174 q0 -96 -71.5 -165t-217.5 -69q-66 0 -88 8l14 119q29 -4 58 -4q145 0 145 107q0 88 -139 90l20 160q-315 25 -465.5 226.5t-150.5 542.5z" glyph-name="Ccedilla" horiz-adv-x="1394" unicode="Ç"/><glyph d="M383 1765l94 172l402 -258l-64 -110zM106 0v131l130 14q20 2 26 10.5t6 30.5v1108q0 25 -6 32t-26 9l-130 15v133h1053v-369l-174 8l-29 158q-6 27 -34 27h-414v-471h520v-179h-520v-483h459q29 0 32 23l33 180h172v-377h-1098z" glyph-name="Egrave" horiz-adv-x="1296" unicode="È"/><glyph d="M440 1681l402 258l94 -172l-432 -198zM106 0v131l130 14q20 2 26 10.5t6 30.5v1108q0 25 -6 32t-26 9l-130 15v133h1053v-369l-174 8l-29 158q-6 27 -34 27h-414v-471h520v-179h-520v-483h459q29 0 32 23l33 180h172v-377h-1098z" glyph-name="Eacute" horiz-adv-x="1296" unicode="É"/><glyph d="M315 1665l244 217h189l243 -217l-94 -96l-244 170l-243 -170zM106 0v131l130 14q20 2 26 10.5t6 30.5v1108q0 25 -6 32t-26 9l-130 15v133h1053v-369l-174 8l-29 158q-6 27 -34 27h-414v-471h520v-179h-520v-483h459q29 0 32 23l33 180h172v-377h-1098z" glyph-name="Ecircumflex" horiz-adv-x="1296" unicode="Ê"/><glyph d="M735 1724.5q0 57.5 35 91t92.5 33.5t92 -33.5t34.5 -91t-34.5 -91.5t-92 -34t-92.5 34t-35 91.5zM315 1724.5q0 57.5 36 91t93.5 33.5t92 -33.5t34.5 -91t-34.5 -91.5t-92 -34t-93.5 34t-36 91.5zM106 0v131l130 14q20 2 26 10.5t6 30.5v1108q0 25 -6 32t-26 9l-130 15 v133h1053v-369l-174 8l-29 158q-6 27 -34 27h-414v-471h520v-179h-520v-483h459q29 0 32 23l33 180h172v-377h-1098z" glyph-name="Edieresis" horiz-adv-x="1296" unicode="Ë"/><glyph d="M139 1765l94 172l402 -258l-64 -110zM104 0v131l150 14q20 2 26.5 9.5t6.5 31.5v1110q0 25 -6.5 32t-26.5 9l-150 15v131h613v-131l-158 -17q-23 -2 -28 -9t-5 -30v-1108q0 -25 5.5 -31.5t27.5 -9.5l158 -16v-131h-613z" glyph-name="Igrave" horiz-adv-x="813" unicode="Ì"/><glyph d="M197 1681l401 258l94 -172l-432 -198zM104 0v131l150 14q20 2 26.5 9.5t6.5 31.5v1110q0 25 -6.5 32t-26.5 9l-150 15v131h613v-131l-158 -17q-23 -2 -28 -9t-5 -30v-1108q0 -25 5.5 -31.5t27.5 -9.5l158 -16v-131h-613z" glyph-name="Iacute" horiz-adv-x="813" unicode="Í"/><glyph d="M104 0v131l150 14q20 2 26.5 9.5t6.5 31.5v1110q0 25 -6.5 32t-26.5 9l-150 15v131h613v-131l-158 -17q-23 -2 -28 -9t-5 -30v-1108q0 -25 5.5 -31.5t27.5 -9.5l158 -16v-131h-613zM72 1665l243 217h189l244 -217l-95 -96l-243 170l-244 -170z" glyph-name="Icircumflex" horiz-adv-x="813" unicode="Î"/><glyph d="M492 1724.5q0 57.5 34.5 91t92 33.5t92 -33.5t34.5 -91t-34.5 -91.5t-92 -34t-92 34t-34.5 91.5zM104 0v131l150 14q20 2 26.5 9.5t6.5 31.5v1110q0 25 -6.5 32t-26.5 9l-150 15v131h613v-131l-158 -17q-23 -2 -28 -9t-5 -30v-1108q0 -25 5.5 -31.5t27.5 -9.5l158 -16 v-131h-613zM72 1724.5q0 57.5 35.5 91t93 33.5t92.5 -33.5t35 -91t-35 -91.5t-92.5 -34t-93 34t-35.5 91.5z" glyph-name="Idieresis" horiz-adv-x="813" unicode="Ï"/><glyph d="M526 178h183q276 0 407 147t131 435t-128 416.5t-398 128.5h-195v-482h351v-186h-351v-459zM125 0v131l129 14q20 2 26.5 10.5t6.5 30.5v451h-129v186h129v471q0 25 -6.5 32t-26.5 9l-129 15v133h633q375 0 555 -187.5t180 -536.5t-192.5 -554t-577.5 -205h-598z" glyph-name="Eth" horiz-adv-x="1576" unicode="Ð"/><glyph d="M659 1851q25 0 103 -18q184 -53 216 -58t46 7l66 71l108 -67l-47 -76q-37 -59 -66.5 -85t-66.5 -26q-38 0 -182 39t-161 42t-32 -11l-72 -74l-100 68l59 96q57 92 129 92zM106 0v131l130 14q20 2 26 10.5t6 30.5v1110q0 25 -6 32t-26 9l-130 15v133h445l694 -1168v979 q0 25 -6 32t-27 9l-129 15v131h527v-131l-137 -17q-23 -2 -28 -9t-5 -30v-1296h-266l-711 1171v-983q0 -25 5 -31.5t28 -9.5l137 -16v-131h-527z" glyph-name="Ntilde" horiz-adv-x="1697" unicode="Ñ"/><glyph d="M535 1769l94 173l401 -259l-63 -110zM334 740q0 -282 119.5 -424t332.5 -142t335 142t122 426t-115.5 426.5t-326.5 142.5t-339 -144.5t-128 -426.5zM86 737q0 346 188.5 559t532.5 213q229 0 455.5 -145.5t226.5 -595.5q0 -371 -180.5 -582t-529.5 -211t-521 208 t-172 554z" glyph-name="Ograve" horiz-adv-x="1572" unicode="Ò"/><glyph d="M592 1686l401 258l94 -172l-432 -199zM334 740q0 -282 119.5 -424t332.5 -142t335 142t122 426t-115.5 426.5t-326.5 142.5t-339 -144.5t-128 -426.5zM86 737q0 346 188.5 559t532.5 213q229 0 455.5 -145.5t226.5 -595.5q0 -371 -180.5 -582t-529.5 -211t-521 208 t-172 554z" glyph-name="Oacute" horiz-adv-x="1572" unicode="Ó"/><glyph d="M467 1669l244 217h188l244 -217l-94 -96l-244 170l-244 -170zM334 740q0 -282 119.5 -424t332.5 -142t335 142t122 426t-115.5 426.5t-326.5 142.5t-339 -144.5t-128 -426.5zM86 737q0 346 188.5 559t532.5 213q229 0 455.5 -145.5t226.5 -595.5q0 -371 -180.5 -582 t-529.5 -211t-521 208t-172 554z" glyph-name="Ocircumflex" horiz-adv-x="1572" unicode="Ô"/><glyph d="M633 1855q25 0 102 -18q184 -53 216 -58t46 7l66 72l108 -68l-47 -76q-37 -59 -66.5 -84.5t-66.5 -25.5t-119 20q-207 57 -224 60t-32 -11l-71 -74l-101 68l60 96q57 92 129 92zM334 740q0 -282 119.5 -424t332.5 -142t335 142t122 426t-115.5 426.5t-326.5 142.5 t-339 -144.5t-128 -426.5zM86 737q0 346 188.5 559t532.5 213q229 0 455.5 -145.5t226.5 -595.5q0 -371 -180.5 -582t-529.5 -211t-521 208t-172 554z" glyph-name="Otilde" horiz-adv-x="1572" unicode="Õ"/><glyph d="M887 1728.5q0 57.5 34.5 91t92 33.5t92.5 -33.5t35 -91t-35 -91t-92.5 -33.5t-92 33.5t-34.5 91zM467 1728.5q0 57.5 36 91t93 33.5t92 -33.5t35 -91t-35 -91t-92 -33.5t-93 33.5t-36 91zM334 740q0 -282 119.5 -424t332.5 -142t335 142t122 426t-115.5 426.5 t-326.5 142.5t-339 -144.5t-128 -426.5zM86 737q0 346 188.5 559t532.5 213q229 0 455.5 -145.5t226.5 -595.5q0 -371 -180.5 -582t-529.5 -211t-521 208t-172 554z" glyph-name="Odieresis" horiz-adv-x="1572" unicode="Ö"/><glyph d="M231 444l211 213l-211 213l142 142l209 -213l211 213l141 -142l-211 -213l211 -213l-141 -139l-211 211l-209 -211z" glyph-name="multiply" horiz-adv-x="1167" unicode="×"/><glyph d="M786 174q213 0 335 141.5t122 441.5t-143 443l-424 -1016q57 -10 110 -10zM334 748q0 -328 158 -474l430 1022q-66 14 -117 15q-215 0 -343 -144.5t-128 -418.5zM86 745q0 338 188.5 551t532.5 213q100 0 194 -22l54 129h219l-86 -205q152 -92 226.5 -260t74.5 -383 q0 -371 -180.5 -582t-530.5 -211q-98 0 -182 19l-64 -154h-221l92 223q-317 180 -317 682z" glyph-name="Oslash" horiz-adv-x="1572" unicode="Ø"/><glyph d="M555 1765l94 172l402 -258l-64 -110zM88 1483h571v-131l-137 -17q-23 -2 -28 -9t-5 -30v-745q0 -197 75 -287t250 -90t254 84t79 287v751q0 25 -6 32t-27 9l-129 15v131h547v-131l-137 -17q-23 -2 -28 -9t-5 -30v-786q0 -535 -561 -535q-289 0 -420 133.5t-131 407.5v780 q0 25 -6 32t-27 9l-129 15v131z" glyph-name="Ugrave" horiz-adv-x="1611" unicode="Ù"/><glyph d="M612 1681l402 258l94 -172l-432 -198zM88 1483h571v-131l-137 -17q-23 -2 -28 -9t-5 -30v-745q0 -197 75 -287t250 -90t254 84t79 287v751q0 25 -6 32t-27 9l-129 15v131h547v-131l-137 -17q-23 -2 -28 -9t-5 -30v-786q0 -535 -561 -535q-289 0 -420 133.5t-131 407.5 v780q0 25 -6 32t-27 9l-129 15v131z" glyph-name="Uacute" horiz-adv-x="1611" unicode="Ú"/><glyph d="M487 1665l244 217h189l243 -217l-94 -96l-244 170l-243 -170zM88 1483h571v-131l-137 -17q-23 -2 -28 -9t-5 -30v-745q0 -197 75 -287t250 -90t254 84t79 287v751q0 25 -6 32t-27 9l-129 15v131h547v-131l-137 -17q-23 -2 -28 -9t-5 -30v-786q0 -535 -561 -535 q-289 0 -420 133.5t-131 407.5v780q0 25 -6 32t-27 9l-129 15v131z" glyph-name="Ucircumflex" horiz-adv-x="1611" unicode="Û"/><glyph d="M907 1724.5q0 57.5 35 91t92.5 33.5t92 -33.5t34.5 -91t-34.5 -91.5t-92 -34t-92.5 34t-35 91.5zM487 1724.5q0 57.5 36 91t93.5 33.5t92 -33.5t34.5 -91t-34.5 -91.5t-92 -34t-93.5 34t-36 91.5zM88 1483h571v-131l-137 -17q-23 -2 -28 -9t-5 -30v-745q0 -197 75 -287 t250 -90t254 84t79 287v751q0 25 -6 32t-27 9l-129 15v131h547v-131l-137 -17q-23 -2 -28 -9t-5 -30v-786q0 -535 -561 -535q-289 0 -420 133.5t-131 407.5v780q0 25 -6 32t-27 9l-129 15v131z" glyph-name="Udieresis" horiz-adv-x="1611" unicode="Ü"/><glyph d="M469 1681l401 258l95 -172l-433 -198zM543 1483v-131l-156 -19l291 -559h10l293 559l-154 19l21 131h463v-131l-86 -23q-39 -10 -51 -39l-381 -721v-381q0 -25 5 -31.5t27 -9.5l211 -16v-131h-714v131l198 14q20 2 26.5 9.5t6.5 31.5v379l-408 729q-14 27 -49 35l-92 23 l21 131h518z" glyph-name="Yacute" horiz-adv-x="1314" unicode="Ý"/><glyph d="M506 514h162q252 0 297 93t45 179q0 141 -80 197.5t-240 56.5h-184v-526zM106 0v131l130 14q20 2 26 10.5t6 30.5v1108q0 25 -6 32t-26 9l-130 15v133h582v-131l-149 -17q-33 -4 -33 -41v-75h258q494 0 493 -420q0 -463 -561 -463h-190v-148q0 -25 5 -31.5t28 -9.5 l292 -16v-131h-725z" glyph-name="Thorn" horiz-adv-x="1341" unicode="Þ"/><glyph d="M49 0v133l117 12q20 2 26.5 9.5t6.5 31.5v932q0 240 125 346.5t374 106.5q461 0 461 -379q0 -260 -225 -348v-6q150 -31 230.5 -124t80.5 -290t-110.5 -323t-294.5 -126t-308 70l60 158q268 -124 338.5 -13t70.5 249q0 292 -299 292q-27 0 -100 -4v170l103 12 q213 25 213 258t-232 234q-131 0 -191.5 -57.5t-60.5 -213.5v-1130h-385z" glyph-name="germandbls" horiz-adv-x="1320" unicode="ß"/><glyph d="M326 291q0 -74 32.5 -103.5t98.5 -29.5q141 0 264 123v180l-195 -17q-113 -10 -156.5 -44.5t-43.5 -108.5zM287 1450l141 137l315 -344l-94 -88zM84 266q0 152 93 229.5t284 94.5l260 20v105q0 106 -35 152t-135 46t-137 -17t-49.5 -49t-12.5 -83l-221 20q0 295 414 295 q225 0 316 -78.5t91 -287.5v-527q0 -25 5.5 -32t27.5 -9l100 -14v-131h-321l-21 121l-6 2q-154 -147 -360 -148q-293 0 -293 291z" glyph-name="agrave" horiz-adv-x="1120" unicode="à"/><glyph d="M332 1243l315 344l141 -137l-362 -295zM326 291q0 -74 32.5 -103.5t98.5 -29.5q141 0 264 123v180l-195 -17q-113 -10 -156.5 -44.5t-43.5 -108.5zM84 266q0 152 93 229.5t284 94.5l260 20v105q0 106 -35 152t-135 46t-137 -17t-49.5 -49t-12.5 -83l-221 20 q0 295 414 295q225 0 316 -78.5t91 -287.5v-527q0 -25 5.5 -32t27.5 -9l100 -14v-131h-321l-21 121l-6 2q-154 -147 -360 -148q-293 0 -293 291z" glyph-name="aacute" horiz-adv-x="1120" unicode="á"/><glyph d="M326 291q0 -74 32.5 -103.5t98.5 -29.5q141 0 264 123v180l-195 -17q-113 -10 -156.5 -44.5t-43.5 -108.5zM193 1253l256 256h188l256 -256l-102 -90l-248 201l-248 -201zM84 266q0 152 93 229.5t284 94.5l260 20v105q0 106 -35 152t-135 46t-137 -17t-49.5 -49 t-12.5 -83l-221 20q0 295 414 295q225 0 316 -78.5t91 -287.5v-527q0 -25 5.5 -32t27.5 -9l100 -14v-131h-321l-21 121l-6 2q-154 -147 -360 -148q-293 0 -293 291z" glyph-name="acircumflex" horiz-adv-x="1120" unicode="â"/><glyph d="M326 291q0 -74 32.5 -103.5t98.5 -29.5q141 0 264 123v180l-195 -17q-113 -10 -156.5 -44.5t-43.5 -108.5zM371 1450q25 0 102 -18q184 -52 216 -58t46 6l66 72l108 -68l-47 -75q-37 -59 -66.5 -85t-66.5 -26t-181 39t-162 42q-17 3 -32 -11l-71 -74l-101 68l60 96 q57 92 129 92zM84 266q0 152 93 229.5t284 94.5l260 20v105q0 106 -35 152t-135 46t-137 -17t-49.5 -49t-12.5 -83l-221 20q0 295 414 295q225 0 316 -78.5t91 -287.5v-527q0 -25 5.5 -32t27.5 -9l100 -14v-131h-321l-21 121l-6 2q-154 -147 -360 -148q-293 0 -293 291z" glyph-name="atilde" horiz-adv-x="1120" unicode="ã"/><glyph d="M625 1357.5q0 57.5 34.5 90.5t92 33t92.5 -33t35 -90.5t-35 -91t-92.5 -33.5t-92 33.5t-34.5 91zM326 291q0 -74 32.5 -103.5t98.5 -29.5q141 0 264 123v180l-195 -17q-113 -10 -156.5 -44.5t-43.5 -108.5zM205 1357q0 56 35.5 90t93 34t92.5 -33t35 -90.5t-35 -91 t-92.5 -33.5t-93 34t-35.5 90zM84 266q0 152 93 229.5t284 94.5l260 20v105q0 106 -35 152t-135 46t-137 -17t-49.5 -49t-12.5 -83l-221 20q0 295 414 295q225 0 316 -78.5t91 -287.5v-527q0 -25 5.5 -32t27.5 -9l100 -14v-131h-321l-21 121l-6 2q-154 -147 -360 -148 q-293 0 -293 291z" glyph-name="adieresis" horiz-adv-x="1120" unicode="ä"/><glyph d="M475 1365q0 -85 83 -85t83 85t-83 85t-83 -85zM350 1362q0 90 59.5 144.5t148.5 54.5t148.5 -53.5t59.5 -142.5t-57.5 -142.5t-150.5 -53.5t-150.5 51.5t-57.5 141.5zM326 291q0 -74 32.5 -103.5t98.5 -29.5q141 0 264 123v180l-195 -17q-113 -10 -156.5 -44.5 t-43.5 -108.5zM84 266q0 152 93 229.5t284 94.5l260 20v105q0 106 -35 152t-135 46t-137 -17t-49.5 -49t-12.5 -83l-221 20q0 295 414 295q225 0 316 -78.5t91 -287.5v-527q0 -25 5.5 -32t27.5 -9l100 -14v-131h-321l-21 121l-6 2q-154 -147 -360 -148q-293 0 -293 291z" glyph-name="aring" horiz-adv-x="1120" unicode="å"/><glyph d="M1184 901q-96 0 -160 -64.5t-72 -199.5h434q-2 264 -202 264zM326 287q0 -133 135 -133q72 0 158 35.5t137 91.5q-25 76 -35 180l-195 -17q-115 -8 -157.5 -43.5t-42.5 -113.5zM84 264q0 154 93 232.5t284 93.5l260 20v105q0 106 -35 152t-135 46t-137 -17t-49.5 -49 t-12.5 -83l-221 20q0 295 401 295q137 0 218 -34.5t122 -114.5q117 150 334 149q414 0 414 -485q0 -47 -4 -121h-664q10 -158 76 -232.5t206 -74.5t302 72l66 -166q-188 -96 -392 -97q-254 0 -376 162q-211 -162 -431 -162q-319 0 -319 289z" glyph-name="ae" horiz-adv-x="1691" unicode="æ"/><glyph d="M72 516q0 279 148.5 421t375.5 142t354 -73v-291l-170 8l-24 135q-5 47 -142 47t-217 -89t-80 -281q0 -371 308 -371q141 0 260 63l67 -159q-133 -82 -340 -93l-8 -67q156 -33 156 -174q0 -96 -72 -165t-217 -69q-66 0 -88 8l14 119q29 -4 58 -4q145 0 145 107 q0 88 -139 90l22 164q-207 29 -309 170t-102 362z" glyph-name="ccedilla" horiz-adv-x="1013" unicode="ç"/><glyph d="M754 637q0 264 -203 264q-94 0 -156.5 -65.5t-70.5 -198.5h430zM293 1450l141 137l316 -344l-95 -88zM72 535q0 266 135 405t348 139q434 0 434 -493q0 -61 -6 -119h-661q8 -150 73.5 -226.5t201.5 -76.5t308 72l66 -164q-188 -96 -393 -97q-506 1 -506 560z" glyph-name="egrave" horiz-adv-x="1060" unicode="è"/><glyph d="M338 1243l315 344l142 -137l-363 -295zM754 637q0 264 -203 264q-94 0 -156.5 -65.5t-70.5 -198.5h430zM72 535q0 266 135 405t348 139q434 0 434 -493q0 -61 -6 -119h-661q8 -150 73.5 -226.5t201.5 -76.5t308 72l66 -164q-188 -96 -393 -97q-506 1 -506 560z" glyph-name="eacute" horiz-adv-x="1060" unicode="é"/><glyph d="M754 637q0 264 -203 264q-94 0 -156.5 -65.5t-70.5 -198.5h430zM199 1253l256 256h188l256 -256l-102 -90l-248 201l-248 -201zM72 535q0 266 135 405t348 139q434 0 434 -493q0 -61 -6 -119h-661q8 -150 73.5 -226.5t201.5 -76.5t308 72l66 -164q-188 -96 -393 -97 q-506 1 -506 560z" glyph-name="ecircumflex" horiz-adv-x="1060" unicode="ê"/><glyph d="M631 1357.5q0 57.5 34.5 90.5t92 33t92.5 -33t35 -90.5t-35 -91t-92.5 -33.5t-92 33.5t-34.5 91zM754 637q0 264 -203 264q-94 0 -156.5 -65.5t-70.5 -198.5h430zM211 1357q0 56 36 90t93 34t92 -33t35 -90.5t-35 -91t-92 -33.5t-93 34t-36 90zM72 535q0 266 135 405 t348 139q434 0 434 -493q0 -61 -6 -119h-661q8 -150 73.5 -226.5t201.5 -76.5t308 72l66 -164q-188 -96 -393 -97q-506 1 -506 560z" glyph-name="edieresis" horiz-adv-x="1060" unicode="ë"/><glyph d="M47 0v129l123 16q20 2 26.5 10.5t6.5 30.5v660q0 35 -27 43l-113 39l21 131h354v-873q0 -25 5.5 -32t27.5 -9l121 -14v-131h-545zM43 1440l141 137l316 -344l-94 -88z" glyph-name="igrave" horiz-adv-x="624" unicode="ì"/><glyph d="M68 1233l315 344l141 -137l-362 -295zM47 0v129l123 16q20 2 26.5 10.5t6.5 30.5v660q0 35 -27 43l-113 39l21 131h354v-873q0 -25 5.5 -32t27.5 -9l121 -14v-131h-545z" glyph-name="iacute" horiz-adv-x="624" unicode="í"/><glyph d="M47 0v129l123 16q20 2 26.5 10.5t6.5 30.5v660q0 35 -27 43l-113 39l21 131h354v-873q0 -25 5.5 -32t27.5 -9l121 -14v-131h-545zM-47 1249l231 256h189l231 -256l-102 -90l-223 201l-224 -201z" glyph-name="icircumflex" horiz-adv-x="624" unicode="î"/><glyph d="M360 1319q0 57 35 90t92.5 33t92 -33t34.5 -90t-34.5 -91t-92 -34t-92.5 34t-35 91zM47 0v129l123 16q20 2 26.5 10.5t6.5 30.5v660q0 35 -27 43l-113 39l21 131h354v-873q0 -25 5.5 -32t27.5 -9l121 -14v-131h-545zM-59 1318q0 56 35.5 90t93 34t92.5 -33t35 -90 t-35 -91t-92.5 -34t-93 34t-35.5 90z" glyph-name="idieresis" horiz-adv-x="624" unicode="ï"/><glyph d="M319 518q0 -368 261 -368q274 0 274 479q0 39 -8 129q-39 39 -113 68.5t-149 29.5q-265 0 -265 -338zM76 518q0 221 124 367.5t361 146.5q145 0 256 -67q-35 141 -147 256l-203 -111l-92 145l147 80q-104 57 -227 86l70 172q223 -39 374 -139l209 113l80 -150l-151 -84 q211 -238 210 -684q0 -277 -83.5 -420t-189 -198.5t-249.5 -55.5q-489 0 -489 543z" glyph-name="eth" horiz-adv-x="1163" unicode="ð"/><glyph d="M451 1450q25 0 102 -18q185 -52 217 -58t45 6l66 72l108 -68l-47 -75q-37 -59 -66.5 -85t-66.5 -26t-181 39t-162 42q-17 3 -32 -11l-72 -74l-100 68l60 96q57 92 129 92zM795 1079q305 0 305 -374v-519q0 -25 5 -32t28 -9l112 -14v-131h-516v129l102 12q33 4 33 41v475 q0 111 -27.5 168.5t-117.5 57.5q-133 0 -281 -107v-590q0 -25 5.5 -32t27.5 -9l109 -14v-131h-508v133l98 12q20 2 26.5 10.5t6.5 30.5v660q0 35 -27 43l-113 39l21 131h303l16 -113l9 -2q199 135 383 135z" glyph-name="ntilde" horiz-adv-x="1286" unicode="ñ"/><glyph d="M346 1450l141 137l316 -344l-94 -88zM596 901q-279 0 -279 -376t270.5 -375.5t270.5 382.5q0 193 -64.5 281t-197.5 88zM72 523q0 257 133 406.5t394 149.5t382 -143t121 -401t-129 -409t-393 -151t-386 145.5t-122 402.5z" glyph-name="ograve" horiz-adv-x="1173" unicode="ò"/><glyph d="M391 1243l316 344l141 -137l-363 -295zM596 901q-279 0 -279 -376t270.5 -375.5t270.5 382.5q0 193 -64.5 281t-197.5 88zM72 523q0 257 133 406.5t394 149.5t382 -143t121 -401t-129 -409t-393 -151t-386 145.5t-122 402.5z" glyph-name="oacute" horiz-adv-x="1173" unicode="ó"/><glyph d="M596 901q-279 0 -279 -376t270.5 -375.5t270.5 382.5q0 193 -64.5 281t-197.5 88zM252 1253l256 256h188l256 -256l-102 -90l-248 201l-248 -201zM72 523q0 257 133 406.5t394 149.5t382 -143t121 -401t-129 -409t-393 -151t-386 145.5t-122 402.5z" glyph-name="ocircumflex" horiz-adv-x="1173" unicode="ô"/><glyph d="M596 901q-279 0 -279 -376t270.5 -375.5t270.5 382.5q0 193 -64.5 281t-197.5 88zM430 1450q25 0 102 -18q184 -52 217 -58t46 6l65 72l109 -68l-47 -75q-37 -59 -67 -85t-67 -26t-181 39q-143 39 -161 42t-32 -11l-72 -74l-100 68l59 96q57 92 129 92zM72 523 q0 257 133 406.5t394 149.5t382 -143t121 -401t-129 -409t-393 -151t-386 145.5t-122 402.5z" glyph-name="otilde" horiz-adv-x="1173" unicode="õ"/><glyph d="M684 1357.5q0 57.5 35 90.5t92 33t92 -33t35 -90.5t-35 -91t-92 -33.5t-92 33.5t-35 91zM596 901q-279 0 -279 -376t270.5 -375.5t270.5 382.5q0 193 -64.5 281t-197.5 88zM264 1357q0 56 36 90t93.5 34t92 -33t34.5 -90.5t-34.5 -91t-92 -33.5t-93.5 34t-36 90zM72 523 q0 257 133 406.5t394 149.5t382 -143t121 -401t-129 -409t-393 -151t-386 145.5t-122 402.5z" glyph-name="odieresis" horiz-adv-x="1173" unicode="ö"/><glyph d="M430 985q0 63 37 99t106.5 36t106.5 -35.5t37 -99.5q0 -135 -143.5 -135t-143.5 135zM430 332q0 63 37 99t106.5 36t106.5 -36t37 -99q0 -135 -143.5 -135t-143.5 135zM193 561v193h780v-193h-780z" glyph-name="divide" horiz-adv-x="1167" unicode="÷"/><glyph d="M588 150q270 0 270 382q0 172 -53 263l-283 -639q31 -6 66 -6zM317 530q0 -174 56 -268l280 635q-37 4 -57 4q-279 0 -279 -371zM72 518q0 262 133 411.5t397 149.5q61 0 127 -10l64 141h196l-90 -204q203 -127 203 -461q0 -268 -129 -419t-391 -151q-74 0 -136 13 l-69 -162h-199l98 223q-204 127 -204 469z" glyph-name="oslash" horiz-adv-x="1173" unicode="ø"/><glyph d="M362 1450l142 137l315 -344l-94 -88zM436 1059v-684q0 -111 28 -161t109 -50q145 0 285 143v549q0 25 -5 33t-28 12l-98 25l18 133h349v-873q0 -37 26 -41l107 -14v-131h-324l-18 125l-6 2q-189 -152 -367 -152t-244.5 83t-66.5 266v532q0 25 -5.5 33t-27.5 12l-105 25 l19 133h354z" glyph-name="ugrave" horiz-adv-x="1282" unicode="ù"/><glyph d="M408 1243l315 344l141 -137l-362 -295zM436 1059v-684q0 -111 28 -161t109 -50q145 0 285 143v549q0 25 -5 33t-28 12l-98 25l18 133h349v-873q0 -37 26 -41l107 -14v-131h-324l-18 125l-6 2q-189 -152 -367 -152t-244.5 83t-66.5 266v532q0 25 -5.5 33t-27.5 12l-105 25 l19 133h354z" glyph-name="uacute" horiz-adv-x="1282" unicode="ú"/><glyph d="M268 1253l256 256h189l256 -256l-103 -90l-248 201l-247 -201zM436 1059v-684q0 -111 28 -161t109 -50q145 0 285 143v549q0 25 -5 33t-28 12l-98 25l18 133h349v-873q0 -37 26 -41l107 -14v-131h-324l-18 125l-6 2q-189 -152 -367 -152t-244.5 83t-66.5 266v532 q0 25 -5.5 33t-27.5 12l-105 25l19 133h354z" glyph-name="ucircumflex" horiz-adv-x="1282" unicode="û"/><glyph d="M700 1357.5q0 57.5 35 90.5t92.5 33t92 -33t34.5 -90.5t-34.5 -91t-92 -33.5t-92.5 33.5t-35 91zM281 1357q0 56 35.5 90t93 34t92.5 -33t35 -90.5t-35 -91t-92.5 -33.5t-93 34t-35.5 90zM436 1059v-684q0 -111 28 -161t109 -50q145 0 285 143v549q0 25 -5 33t-28 12 l-98 25l18 133h349v-873q0 -37 26 -41l107 -14v-131h-324l-18 125l-6 2q-189 -152 -367 -152t-244.5 83t-66.5 266v532q0 25 -5.5 33t-27.5 12l-105 25l19 133h354z" glyph-name="udieresis" horiz-adv-x="1282" unicode="ü"/><glyph d="M412 1243l315 344l141 -137l-362 -295zM516 1059v-135l-133 -17l256 -633h8l254 633l-135 17l22 135h422v-135l-67 -11q-39 -6 -51 -34l-480 -1160l205 -20v-133h-606v135l145 16q25 2 34 11.5t22 33.5l104 240l-377 868q-10 27 -43 35l-84 19l27 135h477z" glyph-name="yacute" horiz-adv-x="1222" unicode="ý"/><glyph d="M645 164q252 0 252 385q0 338 -223 338q-127 0 -260 -107v-514q111 -102 231 -102zM412 1546v-596q182 129 342 129q385 0 385 -516q0 -221 -63.5 -351t-150.5 -183.5t-208 -53.5q-182 0 -307 109v-330q0 -25 5 -32t27 -9l201 -16v-131h-584v133l84 12q20 2 27.5 11.5 t7.5 31.5v1579q0 35 -26 43l-115 39l20 131h355z" glyph-name="thorn" horiz-adv-x="1216" unicode="þ"/><glyph d="M705 1357.5q0 57.5 34.5 90.5t92 33t92 -33t34.5 -90.5t-34.5 -91t-92 -33.5t-92 33.5t-34.5 91zM285 1357q0 56 35.5 90t93 34t92.5 -33t35 -90.5t-35 -91t-92.5 -33.5t-93 34t-35.5 90zM516 1059v-135l-133 -17l256 -633h8l254 633l-135 17l22 135h422v-135l-67 -11 q-39 -6 -51 -34l-480 -1160l205 -20v-133h-606v135l145 16q25 2 34 11.5t22 33.5l104 240l-377 868q-10 27 -43 35l-84 19l27 135h477z" glyph-name="ydieresis" horiz-adv-x="1222" unicode="ÿ"/><glyph d="M342 738q0 -278 91 -417t285.5 -139t287 138.5t92.5 429.5q0 553 -365 553q-188 0 -289.5 -143.5t-101.5 -421.5zM86 734q0 356 162 565.5t489 209.5q106 0 207 -26h961v-369l-174 8l-29 158q-6 27 -35 27h-475q141 -162 151 -471h443v-179h-445q-20 -324 -163 -483h534 q29 0 33 23l33 180h172v-377h-1035q-96 -25 -206 -25q-336 0 -479.5 201.5t-143.5 557.5z" glyph-name="OE" horiz-adv-x="2029" unicode="Œ"/><glyph d="M1526 637q0 264 -203 264q-209 0 -227 -264h430zM596 897q-277 0 -277 -374t259 -373q276 0 276 382q0 188 -63.5 276.5t-194.5 88.5zM72 524q0 258 131 406.5t397 148.5t379 -188q117 188 367 188q193 0 304 -119.5t111 -373.5q0 -35 -4 -113h-663q12 -154 76.5 -231.5 t199.5 -77.5t307 72l66 -164q-188 -96 -379 -97q-287 0 -395 195q-127 -195 -391 -195t-385 145.5t-121 403.5z" glyph-name="oe" horiz-adv-x="1832" unicode="œ"/><glyph d="M764 1724.5q0 57.5 35 91t92 33.5t92 -33.5t35 -91t-35 -91.5t-92 -34t-92 34t-35 91.5zM344 1724.5q0 57.5 36 91t93 33.5t92 -33.5t35 -91t-35 -91.5t-92 -34t-93 34t-36 91.5zM543 1483v-131l-156 -19l291 -559h10l293 559l-154 19l21 131h463v-131l-86 -23 q-39 -10 -51 -39l-381 -721v-381q0 -25 5 -31.5t27 -9.5l211 -16v-131h-714v131l198 14q20 2 26.5 9.5t6.5 31.5v379l-408 729q-14 27 -49 35l-92 23l21 131h518z" glyph-name="Ydieresis" horiz-adv-x="1314" unicode="Ÿ"/><glyph d="M162 1253l256 256h188l256 -256l-102 -90l-248 201l-248 -201z" glyph-name="circumflex" unicode="ˆ"/><glyph d="M338 1450q25 0 102 -18q184 -52 216 -58t46 6l66 72l109 -68l-48 -75q-37 -59 -67 -85t-66 -26q-37 0 -181 39q-143 39 -161 42t-32 -11l-72 -74l-100 68l59 96q57 92 129 92z" glyph-name="tilde" unicode="˜"/><glyph d="M0 489v173h1022v-173h-1022z" glyph-name="endash" horiz-adv-x="1021" unicode="–"/><glyph d="M0 489v173h2048v-173h-2048z" glyph-name="emdash" horiz-adv-x="2048" unicode="—"/><glyph d="M84 1251q0 43 33 113l102 207l107 -35l-52 -199q-6 -16 11 -22l69 -25l-41 -170q-115 2 -172 27.5t-57 103.5z" glyph-name="quoteleft" horiz-adv-x="409" unicode="‘"/><glyph d="M330 1438q0 -45 -33 -111l-104 -207l-105 33l51 199q6 16 -10 22l-70 25l41 172q115 -4 172.5 -29.5t57.5 -103.5z" glyph-name="quoteright" horiz-adv-x="409" unicode="’"/><glyph d="M342 57q0 -41 -35 -110l-102 -207l-105 33l52 198q2 16 -11 23l-69 24l41 172q115 -4 172 -29.5t57 -103.5z" glyph-name="quotesinglbase" horiz-adv-x="397" unicode="‚"/><glyph d="M412 1251q0 43 32 113l103 207l106 -35l-51 -199q-6 -16 10 -22l70 -25l-41 -170q-115 2 -172 27.5t-57 103.5zM84 1251q0 43 33 113l102 207l107 -35l-52 -199q-6 -16 11 -22l69 -25l-41 -170q-115 2 -172 27.5t-57 103.5z" glyph-name="quotedblleft" horiz-adv-x="737" unicode="“"/><glyph d="M657 1438q0 -45 -32 -111l-105 -207l-104 33l51 199q6 16 -10 22l-70 25l41 172q115 -4 172 -29.5t57 -103.5zM330 1438q0 -45 -33 -111l-104 -207l-105 33l51 199q6 16 -10 22l-70 25l41 172q115 -4 172.5 -29.5t57.5 -103.5z" glyph-name="quotedblright" horiz-adv-x="737" unicode="”"/><glyph d="M670 57q0 -41 -35 -110l-103 -207l-104 33l51 198q2 16 -10 23l-70 24l41 172q115 -4 172.5 -29.5t57.5 -103.5zM342 57q0 -41 -35 -110l-102 -207l-105 33l52 198q2 16 -11 23l-69 24l41 172q115 -4 172 -29.5t57 -103.5z" glyph-name="quotedblbase" horiz-adv-x="724" unicode="„"/><glyph d="M113 594q0 139 74.5 211t215.5 72q293 0 293 -284t-292 -284t-291 285z" glyph-name="bullet" horiz-adv-x="808" unicode="•"/><glyph d="M899.5 116.5q-0.5 141.5 150.5 141.5t150.5 -141.5t-150.5 -141.5t-150.5 141.5zM496 116.5q0 141.5 150 141.5t150 -141.5t-150 -141.5t-150 141.5zM80 116.5q0 141.5 150 141.5t150 -141.5t-150 -141.5t-150 141.5z" glyph-name="ellipsis" horiz-adv-x="1261" unicode="…"/><glyph d="M102 528l183 308h200l-157 -283q-12 -18 -2 -39l153 -303h-198z" glyph-name="guilsinglleft" horiz-adv-x="571" unicode="‹"/><glyph d="M86 836h201l180 -314l-178 -311h-201l154 293q12 20 2 39z" glyph-name="guilsinglright" horiz-adv-x="569" unicode="›"/><glyph d="M158 582v125h-113l29 151h102q45 236 190.5 355.5t346.5 119.5q102 0 198.5 -23.5t147.5 -54.5v-317l-164 12l-29 152q-4 25 -26 35q-43 16 -127 16q-233 0 -291 -295h375l-27 -151h-364v-50q0 -51 2 -75h344l-27 -152h-299q57 -274 287 -274q86 0 125 16q23 10 26 35 l29 155l164 11v-322q-49 -27 -153.5 -51.5t-211.5 -24.5q-442 0 -518 455h-174l29 152h129z" glyph-name="Euro" horiz-adv-x="1130" unicode="€"/><glyph d="M780 713v82l80 10v581l-80 9v88h217l226 -465l235 465h203v-88l-82 -9v-581l86 -10v-82h-303v82l92 10v428l-184 -354h-105l-180 356v-430l98 -10v-82h-303zM57 1272v211h658v-211h-84l-15 108h-163v-573l125 -10v-84h-377v84l116 10v573h-161l-17 -108h-82z" glyph-name="trademark" horiz-adv-x="1714" unicode="™"/><glyph d="M0 1060h1060v-1060h-1060v1060z" glyph-name="uniE000" horiz-adv-x="1060" unicode=""/><glyph d="M70 891v168h159v133q0 205 113 291t371 86q100 0 161.5 -8.5t148.5 -47.5t91 -225l-223 -26q-2 92 -37 117.5t-163 25.5t-177 -42t-49 -149v-133q0 -17 5 -19.5t15 -2.5h650v-873q0 -25 5 -32t27 -9l121 -14v-131h-545v129l129 16q18 2 22.5 10.5t4.5 28.5v678 q0 18 -4 23.5t-23 5.5h-407v-703q0 -23 5 -29.5t28 -8.5l155 -19v-131h-581v131l125 14q23 2 27.5 10.5t4.5 28.5v686q0 20 -16 21h-143z" glyph-name="uniFB01" horiz-adv-x="1320" unicode="ﬁ"/><glyph d="M70 891v168h159v125q0 211 110 298t388 87q92 0 141.5 -3t109.5 -19.5t108.5 -73.5t48.5 -218v-1069q0 -25 5 -32t27 -9l115 -14v-131h-532v129l116 16q20 2 26.5 10.5t6.5 30.5v1098q0 76 -36 98.5t-170 22.5t-181 -46t-47 -157v-123q0 -20 16 -20h310v-168h-326v-698 q0 -25 5 -32t28 -9l161 -21v-131h-587v133l125 12q20 2 26 9.5t6 31.5v684q0 20 -16 21h-143z" glyph-name="uniFB02" horiz-adv-x="1320" unicode="ﬂ"/><glyph d="M465 1079q0 -20 16 -20h418v119q0 104 -57.5 150t-177.5 46t-159.5 -45t-39.5 -143v-107zM70 891v168h159v106q0 373 418 373q233 0 324 -96q106 127 411 127q100 0 162 -8.5t149 -47.5t91 -225l-223 -26q-2 92 -37 117.5t-163 25.5t-177 -42t-49 -149v-133 q0 -17 5 -19.5t15 -2.5h649v-873q0 -25 5.5 -32t27.5 -9l121 -14v-131h-545v129l129 16q18 2 22.5 10.5t4.5 28.5v678q0 18 -4 23.5t-23 5.5h-407v-703q0 -23 5 -29.5t27 -8.5l156 -19v-131h-582v131l125 14q23 2 28 10.5t5 28.5v686q0 20 -16 21h-418v-698q0 -25 5 -32 t28 -9l161 -21v-131h-587v133l125 12q20 2 26 9.5t6 31.5v684q0 20 -16 21h-143z" glyph-name="uniFB03" horiz-adv-x="1992" unicode="ﬃ"/><glyph d="M465 1079q0 -20 16 -20h418v119q0 104 -57.5 150t-177.5 46t-159.5 -45t-39.5 -143v-107zM70 891v168h159v106q0 373 418 373q231 0 322 -96q102 127 428 127q92 0 141 -3t109.5 -19.5t108.5 -74t48 -217.5v-1069q0 -25 5.5 -32t27.5 -9l115 -14v-131h-533v129l117 16 q20 2 26.5 10.5t6.5 30.5v1098q0 76 -36.5 98.5t-170.5 22.5t-180.5 -46t-46.5 -157v-123q0 -20 16 -20h309v-168h-325v-698q0 -25 5 -32t27 -9l162 -21v-131h-588v133l125 12q20 2 26.5 9.5t6.5 31.5v684q0 20 -16 21h-418v-698q0 -25 5 -32t28 -9l161 -21v-131h-587v133 l125 12q20 2 26 9.5t6 31.5v684q0 20 -16 21h-143z" glyph-name="uniFB04" horiz-adv-x="1992" unicode="ﬄ"/><glyph glyph-name="CR"/></font>
</defs>
</svg>
