<svg xmlns="http://www.w3.org/2000/svg" xmlns:xlink="http://www.w3.org/1999/xlink" id="search" x="0" y="0" enable-background="new 0 0 24 24" version="1.1" viewBox="0 0 24 24" xml:space="preserve"><path fill="#04A9C5" fill-rule="evenodd" d="M23.3,23.3c-0.9,0.9-2.3,0.9-3.2,0l-4-4c-1.6,1-3.6,1.7-5.7,1.7	C4.7,21,0,16.3,0,10.5C0,4.7,4.7,0,10.5,0C16.3,0,21,4.7,21,10.5c0,2.1-0.6,4-1.7,5.7l4,4C24.2,21,24.2,22.5,23.3,23.3z M10.5,3	C6.4,3,3,6.4,3,10.5c0,4.1,3.4,7.5,7.5,7.5c4.1,0,7.5-3.4,7.5-7.5C18,6.4,14.7,3,10.5,3z" clip-rule="evenodd"/></svg>