<svg xmlns="http://www.w3.org/2000/svg" xmlns:xlink="http://www.w3.org/1999/xlink" id="Layer_1" x="0" y="0" enable-background="new 0 0 640 480" version="1.1" viewBox="0 0 640 480" xml:space="preserve"><g><g><defs><rect id="SVGID_1_" width="640" height="362.1" y="58.9"/></defs><clipPath id="SVGID_2_"><use overflow="visible" xlink:href="#SVGID_1_"/></clipPath><path fill="#00A9C5" d="M627.4,71.6c4.2,4.2,4.2,8.4,8.4,16.8c4.2,4.2,4.2,12.6,4.2,16.8 s0,12.6-4.2,16.8c-4.2,4.2-4.2,8.4-8.4,12.6L349.5,408.4c0,4.2-8.4,8.4-12.6,12.6c-4.2,0-12.6,4.2-16.8,4.2 c-4.2,0-12.6,0-16.8-4.2c-4.2,0-12.6-4.2-16.8-8.4L12.6,134.7c-4.2-4.2-4.2-8.4-8.4-12.6C0,113.7,0,109.5,0,105.3 c0-8.4,0-12.6,4.2-16.8s4.2-8.4,8.4-16.8c4.2-4.2,8.4-8.4,16.8-8.4c4.2-4.2,12.6-4.2,16.8-4.2s8.4,0,16.8,4.2 c4.2,0,8.4,4.2,16.8,8.4l240,240L560,67.4c4.2-4.2,8.4-8.4,16.8-8.4c8.4,0,8.4,0,16.8,0s12.6,0,16.8,4.2S618.9,67.4,627.4,71.6" clip-path="url(#SVGID_2_)"/></g></g></svg>